<svg width="1426" height="344" viewBox="0 0 1426 344" fill="none" xmlns="http://www.w3.org/2000/svg">
<path d="M121.629 229.561H130.676V277.889C130.676 284.42 128.707 289.53 124.77 293.217C120.863 296.905 115.645 298.749 109.113 298.749C102.332 298.749 97.0508 297.014 93.2695 293.545C89.4883 290.077 87.5977 285.217 87.5977 278.967H96.5977C96.5977 282.874 97.6602 285.92 99.7852 288.108C101.941 290.295 105.051 291.389 109.113 291.389C112.832 291.389 115.832 290.217 118.113 287.874C120.426 285.53 121.598 282.249 121.629 278.03V229.561ZM166.113 267.389C158.395 265.17 152.77 262.452 149.238 259.233C145.738 255.983 143.988 251.983 143.988 247.233C143.988 241.858 146.129 237.42 150.41 233.92C154.723 230.389 160.316 228.624 167.191 228.624C171.879 228.624 176.051 229.53 179.707 231.342C183.395 233.155 186.238 235.655 188.238 238.842C190.27 242.03 191.285 245.514 191.285 249.295H182.238C182.238 245.17 180.926 241.936 178.301 239.592C175.676 237.217 171.973 236.03 167.191 236.03C162.754 236.03 159.285 237.014 156.785 238.983C154.316 240.92 153.082 243.624 153.082 247.092C153.082 249.874 154.254 252.233 156.598 254.17C158.973 256.077 162.988 257.827 168.645 259.42C174.332 261.014 178.77 262.78 181.957 264.717C185.176 266.624 187.551 268.858 189.082 271.42C190.645 273.983 191.426 276.999 191.426 280.467C191.426 285.999 189.27 290.436 184.957 293.78C180.645 297.092 174.879 298.749 167.66 298.749C162.973 298.749 158.598 297.858 154.535 296.077C150.473 294.264 147.332 291.795 145.113 288.67C142.926 285.545 141.832 281.999 141.832 278.03H150.879C150.879 282.155 152.395 285.42 155.426 287.827C158.488 290.202 162.566 291.389 167.66 291.389C172.41 291.389 176.051 290.42 178.582 288.483C181.113 286.545 182.379 283.905 182.379 280.561C182.379 277.217 181.207 274.639 178.863 272.827C176.52 270.983 172.27 269.17 166.113 267.389ZM212.766 286.719H202.641V293.575H214.523V297.811H197.367V272.217H214.488V276.489H202.641V282.588H212.766V286.719ZM237.709 289.286C237.51 292.04 236.49 294.208 234.65 295.79C232.822 297.372 230.408 298.163 227.408 298.163C224.127 298.163 221.543 297.061 219.656 294.858C217.781 292.643 216.844 289.608 216.844 285.752V284.188C216.844 281.727 217.277 279.559 218.145 277.684C219.012 275.809 220.248 274.374 221.854 273.377C223.471 272.37 225.346 271.866 227.479 271.866C230.432 271.866 232.811 272.657 234.615 274.239C236.42 275.821 237.463 278.042 237.744 280.901H232.471C232.342 279.249 231.879 278.053 231.082 277.315C230.297 276.565 229.096 276.19 227.479 276.19C225.721 276.19 224.402 276.823 223.523 278.088C222.656 279.342 222.211 281.293 222.188 283.942V285.875C222.188 288.641 222.604 290.663 223.436 291.94C224.279 293.217 225.604 293.856 227.408 293.856C229.037 293.856 230.25 293.487 231.047 292.749C231.855 291.999 232.318 290.844 232.436 289.286H237.709Z" fill="#CC9D13" fill-opacity="0.27"/>
<path d="M-38.3711 336.402H-29.3242V384.73C-29.3242 391.261 -31.293 396.371 -35.2305 400.058C-39.1367 403.746 -44.3555 405.589 -50.8867 405.589C-57.668 405.589 -62.9492 403.855 -66.7305 400.386C-70.5117 396.917 -72.4023 392.058 -72.4023 385.808H-63.4023C-63.4023 389.714 -62.3398 392.761 -60.2148 394.949C-58.0586 397.136 -54.9492 398.23 -50.8867 398.23C-47.168 398.23 -44.168 397.058 -41.8867 394.714C-39.5742 392.371 -38.4023 389.089 -38.3711 384.871V336.402ZM6.11328 374.23C-1.60547 372.011 -7.23047 369.292 -10.7617 366.074C-14.2617 362.824 -16.0117 358.824 -16.0117 354.074C-16.0117 348.699 -13.8711 344.261 -9.58984 340.761C-5.27734 337.23 0.316406 335.464 7.19141 335.464C11.8789 335.464 16.0508 336.371 19.707 338.183C23.3945 339.996 26.2383 342.496 28.2383 345.683C30.2695 348.871 31.2852 352.355 31.2852 356.136H22.2383C22.2383 352.011 20.9258 348.777 18.3008 346.433C15.6758 344.058 11.9727 342.871 7.19141 342.871C2.75391 342.871 -0.714844 343.855 -3.21484 345.824C-5.68359 347.761 -6.91797 350.464 -6.91797 353.933C-6.91797 356.714 -5.74609 359.074 -3.40234 361.011C-1.02734 362.917 2.98828 364.667 8.64453 366.261C14.332 367.855 18.7695 369.621 21.957 371.558C25.1758 373.464 27.5508 375.699 29.082 378.261C30.6445 380.824 31.4258 383.839 31.4258 387.308C31.4258 392.839 29.2695 397.277 24.957 400.621C20.6445 403.933 14.8789 405.589 7.66016 405.589C2.97266 405.589 -1.40234 404.699 -5.46484 402.917C-9.52734 401.105 -12.668 398.636 -14.8867 395.511C-17.0742 392.386 -18.168 388.839 -18.168 384.871H-9.12109C-9.12109 388.996 -7.60547 392.261 -4.57422 394.667C-1.51172 397.042 2.56641 398.23 7.66016 398.23C12.4102 398.23 16.0508 397.261 18.582 395.324C21.1133 393.386 22.3789 390.746 22.3789 387.402C22.3789 384.058 21.207 381.48 18.8633 379.667C16.5195 377.824 12.2695 376.011 6.11328 374.23ZM52.7656 393.56H42.6406V400.416H54.5234V404.652H37.3672V379.058H54.4883V383.33H42.6406V389.429H52.7656V393.56ZM77.709 396.126C77.5098 398.88 76.4902 401.048 74.6504 402.63C72.8223 404.212 70.4082 405.003 67.4082 405.003C64.127 405.003 61.543 403.902 59.6562 401.699C57.7812 399.484 56.8438 396.449 56.8438 392.593V391.029C56.8438 388.568 57.2773 386.4 58.1445 384.525C59.0117 382.65 60.248 381.214 61.8535 380.218C63.4707 379.21 65.3457 378.707 67.4785 378.707C70.4316 378.707 72.8105 379.498 74.6152 381.08C76.4199 382.662 77.4629 384.882 77.7441 387.742H72.4707C72.3418 386.089 71.8789 384.894 71.082 384.156C70.2969 383.406 69.0957 383.031 67.4785 383.031C65.7207 383.031 64.4023 383.664 63.5234 384.929C62.6562 386.183 62.2109 388.134 62.1875 390.783V392.716C62.1875 395.482 62.6035 397.503 63.4355 398.781C64.2793 400.058 65.6035 400.697 67.4082 400.697C69.0371 400.697 70.25 400.328 71.0469 399.589C71.8555 398.839 72.3184 397.685 72.4355 396.126H77.709Z" fill="#CC9D13" fill-opacity="0.27"/>
<path d="M435.629 232.106H444.676V280.434C444.676 286.965 442.707 292.075 438.77 295.762C434.863 299.45 429.645 301.293 423.113 301.293C416.332 301.293 411.051 299.559 407.27 296.09C403.488 292.622 401.598 287.762 401.598 281.512H410.598C410.598 285.418 411.66 288.465 413.785 290.653C415.941 292.84 419.051 293.934 423.113 293.934C426.832 293.934 429.832 292.762 432.113 290.418C434.426 288.075 435.598 284.793 435.629 280.575V232.106ZM480.113 269.934C472.395 267.715 466.77 264.997 463.238 261.778C459.738 258.528 457.988 254.528 457.988 249.778C457.988 244.403 460.129 239.965 464.41 236.465C468.723 232.934 474.316 231.168 481.191 231.168C485.879 231.168 490.051 232.075 493.707 233.887C497.395 235.7 500.238 238.2 502.238 241.387C504.27 244.575 505.285 248.059 505.285 251.84H496.238C496.238 247.715 494.926 244.481 492.301 242.137C489.676 239.762 485.973 238.575 481.191 238.575C476.754 238.575 473.285 239.559 470.785 241.528C468.316 243.465 467.082 246.168 467.082 249.637C467.082 252.418 468.254 254.778 470.598 256.715C472.973 258.622 476.988 260.372 482.645 261.965C488.332 263.559 492.77 265.325 495.957 267.262C499.176 269.168 501.551 271.403 503.082 273.965C504.645 276.528 505.426 279.543 505.426 283.012C505.426 288.543 503.27 292.981 498.957 296.325C494.645 299.637 488.879 301.293 481.66 301.293C476.973 301.293 472.598 300.403 468.535 298.622C464.473 296.809 461.332 294.34 459.113 291.215C456.926 288.09 455.832 284.543 455.832 280.575H464.879C464.879 284.7 466.395 287.965 469.426 290.372C472.488 292.747 476.566 293.934 481.66 293.934C486.41 293.934 490.051 292.965 492.582 291.028C495.113 289.09 496.379 286.45 496.379 283.106C496.379 279.762 495.207 277.184 492.863 275.372C490.52 273.528 486.27 271.715 480.113 269.934ZM526.766 289.264H516.641V296.12H528.523V300.356H511.367V274.762H528.488V279.034H516.641V285.133H526.766V289.264ZM551.709 291.831C551.51 294.584 550.49 296.752 548.65 298.334C546.822 299.917 544.408 300.708 541.408 300.708C538.127 300.708 535.543 299.606 533.656 297.403C531.781 295.188 530.844 292.153 530.844 288.297V286.733C530.844 284.272 531.277 282.104 532.145 280.229C533.012 278.354 534.248 276.918 535.854 275.922C537.471 274.915 539.346 274.411 541.479 274.411C544.432 274.411 546.811 275.202 548.615 276.784C550.42 278.366 551.463 280.586 551.744 283.446H546.471C546.342 281.793 545.879 280.598 545.082 279.86C544.297 279.11 543.096 278.735 541.479 278.735C539.721 278.735 538.402 279.368 537.523 280.633C536.656 281.887 536.211 283.838 536.188 286.487V288.42C536.188 291.186 536.604 293.208 537.436 294.485C538.279 295.762 539.604 296.401 541.408 296.401C543.037 296.401 544.25 296.032 545.047 295.293C545.855 294.543 546.318 293.389 546.436 291.831H551.709Z" fill="#CC9D13" fill-opacity="0.27"/>
<path d="M275.629 338.947H284.676V387.275C284.676 393.806 282.707 398.916 278.77 402.603C274.863 406.291 269.645 408.134 263.113 408.134C256.332 408.134 251.051 406.4 247.27 402.931C243.488 399.462 241.598 394.603 241.598 388.353H250.598C250.598 392.259 251.66 395.306 253.785 397.494C255.941 399.681 259.051 400.775 263.113 400.775C266.832 400.775 269.832 399.603 272.113 397.259C274.426 394.916 275.598 391.634 275.629 387.416V338.947ZM320.113 376.775C312.395 374.556 306.77 371.837 303.238 368.619C299.738 365.369 297.988 361.369 297.988 356.619C297.988 351.244 300.129 346.806 304.41 343.306C308.723 339.775 314.316 338.009 321.191 338.009C325.879 338.009 330.051 338.916 333.707 340.728C337.395 342.541 340.238 345.041 342.238 348.228C344.27 351.416 345.285 354.9 345.285 358.681H336.238C336.238 354.556 334.926 351.322 332.301 348.978C329.676 346.603 325.973 345.416 321.191 345.416C316.754 345.416 313.285 346.4 310.785 348.369C308.316 350.306 307.082 353.009 307.082 356.478C307.082 359.259 308.254 361.619 310.598 363.556C312.973 365.462 316.988 367.212 322.645 368.806C328.332 370.4 332.77 372.166 335.957 374.103C339.176 376.009 341.551 378.244 343.082 380.806C344.645 383.369 345.426 386.384 345.426 389.853C345.426 395.384 343.27 399.822 338.957 403.166C334.645 406.478 328.879 408.134 321.66 408.134C316.973 408.134 312.598 407.244 308.535 405.462C304.473 403.65 301.332 401.181 299.113 398.056C296.926 394.931 295.832 391.384 295.832 387.416H304.879C304.879 391.541 306.395 394.806 309.426 397.212C312.488 399.587 316.566 400.775 321.66 400.775C326.41 400.775 330.051 399.806 332.582 397.869C335.113 395.931 336.379 393.291 336.379 389.947C336.379 386.603 335.207 384.025 332.863 382.212C330.52 380.369 326.27 378.556 320.113 376.775ZM366.766 396.105H356.641V402.96H368.523V407.197H351.367V381.603H368.488V385.875H356.641V391.974H366.766V396.105ZM391.709 398.671C391.51 401.425 390.49 403.593 388.65 405.175C386.822 406.757 384.408 407.548 381.408 407.548C378.127 407.548 375.543 406.447 373.656 404.244C371.781 402.029 370.844 398.994 370.844 395.138V393.574C370.844 391.113 371.277 388.945 372.145 387.07C373.012 385.195 374.248 383.759 375.854 382.763C377.471 381.755 379.346 381.251 381.479 381.251C384.432 381.251 386.811 382.042 388.615 383.625C390.42 385.207 391.463 387.427 391.744 390.287H386.471C386.342 388.634 385.879 387.439 385.082 386.701C384.297 385.951 383.096 385.576 381.479 385.576C379.721 385.576 378.402 386.208 377.523 387.474C376.656 388.728 376.211 390.679 376.188 393.328V395.261C376.188 398.027 376.604 400.048 377.436 401.326C378.279 402.603 379.604 403.242 381.408 403.242C383.037 403.242 384.25 402.873 385.047 402.134C385.855 401.384 386.318 400.23 386.436 398.671H391.709Z" fill="#CC9D13" fill-opacity="0.27"/>
<path d="M749.629 234.651H758.676V282.979C758.676 289.51 756.707 294.619 752.77 298.307C748.863 301.994 743.645 303.838 737.113 303.838C730.332 303.838 725.051 302.104 721.27 298.635C717.488 295.166 715.598 290.307 715.598 284.057H724.598C724.598 287.963 725.66 291.01 727.785 293.198C729.941 295.385 733.051 296.479 737.113 296.479C740.832 296.479 743.832 295.307 746.113 292.963C748.426 290.619 749.598 287.338 749.629 283.119V234.651ZM794.113 272.479C786.395 270.26 780.77 267.541 777.238 264.323C773.738 261.073 771.988 257.073 771.988 252.323C771.988 246.948 774.129 242.51 778.41 239.01C782.723 235.479 788.316 233.713 795.191 233.713C799.879 233.713 804.051 234.619 807.707 236.432C811.395 238.244 814.238 240.744 816.238 243.932C818.27 247.119 819.285 250.604 819.285 254.385H810.238C810.238 250.26 808.926 247.026 806.301 244.682C803.676 242.307 799.973 241.119 795.191 241.119C790.754 241.119 787.285 242.104 784.785 244.073C782.316 246.01 781.082 248.713 781.082 252.182C781.082 254.963 782.254 257.323 784.598 259.26C786.973 261.166 790.988 262.916 796.645 264.51C802.332 266.104 806.77 267.869 809.957 269.807C813.176 271.713 815.551 273.948 817.082 276.51C818.645 279.073 819.426 282.088 819.426 285.557C819.426 291.088 817.27 295.526 812.957 298.869C808.645 302.182 802.879 303.838 795.66 303.838C790.973 303.838 786.598 302.948 782.535 301.166C778.473 299.354 775.332 296.885 773.113 293.76C770.926 290.635 769.832 287.088 769.832 283.119H778.879C778.879 287.244 780.395 290.51 783.426 292.916C786.488 295.291 790.566 296.479 795.66 296.479C800.41 296.479 804.051 295.51 806.582 293.573C809.113 291.635 810.379 288.994 810.379 285.651C810.379 282.307 809.207 279.729 806.863 277.916C804.52 276.073 800.27 274.26 794.113 272.479ZM840.766 291.809H830.641V298.664H842.523V302.901H825.367V277.307H842.488V281.578H830.641V287.678H840.766V291.809ZM865.709 294.375C865.51 297.129 864.49 299.297 862.65 300.879C860.822 302.461 858.408 303.252 855.408 303.252C852.127 303.252 849.543 302.151 847.656 299.948C845.781 297.733 844.844 294.698 844.844 290.842V289.278C844.844 286.817 845.277 284.649 846.145 282.774C847.012 280.899 848.248 279.463 849.854 278.467C851.471 277.459 853.346 276.955 855.479 276.955C858.432 276.955 860.811 277.746 862.615 279.328C864.42 280.91 865.463 283.131 865.744 285.99H860.471C860.342 284.338 859.879 283.143 859.082 282.405C858.297 281.655 857.096 281.28 855.479 281.28C853.721 281.28 852.402 281.912 851.523 283.178C850.656 284.432 850.211 286.383 850.188 289.031V290.965C850.188 293.731 850.604 295.752 851.436 297.03C852.279 298.307 853.604 298.946 855.408 298.946C857.037 298.946 858.25 298.576 859.047 297.838C859.855 297.088 860.318 295.934 860.436 294.375H865.709Z" fill="#CC9D13" fill-opacity="0.27"/>
<path d="M589.629 341.491H598.676V389.82C598.676 396.351 596.707 401.46 592.77 405.148C588.863 408.835 583.645 410.679 577.113 410.679C570.332 410.679 565.051 408.945 561.27 405.476C557.488 402.007 555.598 397.148 555.598 390.898H564.598C564.598 394.804 565.66 397.851 567.785 400.038C569.941 402.226 573.051 403.32 577.113 403.32C580.832 403.32 583.832 402.148 586.113 399.804C588.426 397.46 589.598 394.179 589.629 389.96V341.491ZM634.113 379.32C626.395 377.101 620.77 374.382 617.238 371.163C613.738 367.913 611.988 363.913 611.988 359.163C611.988 353.788 614.129 349.351 618.41 345.851C622.723 342.32 628.316 340.554 635.191 340.554C639.879 340.554 644.051 341.46 647.707 343.273C651.395 345.085 654.238 347.585 656.238 350.773C658.27 353.96 659.285 357.445 659.285 361.226H650.238C650.238 357.101 648.926 353.866 646.301 351.523C643.676 349.148 639.973 347.96 635.191 347.96C630.754 347.96 627.285 348.945 624.785 350.913C622.316 352.851 621.082 355.554 621.082 359.023C621.082 361.804 622.254 364.163 624.598 366.101C626.973 368.007 630.988 369.757 636.645 371.351C642.332 372.945 646.77 374.71 649.957 376.648C653.176 378.554 655.551 380.788 657.082 383.351C658.645 385.913 659.426 388.929 659.426 392.398C659.426 397.929 657.27 402.366 652.957 405.71C648.645 409.023 642.879 410.679 635.66 410.679C630.973 410.679 626.598 409.788 622.535 408.007C618.473 406.195 615.332 403.726 613.113 400.601C610.926 397.476 609.832 393.929 609.832 389.96H618.879C618.879 394.085 620.395 397.351 623.426 399.757C626.488 402.132 630.566 403.32 635.66 403.32C640.41 403.32 644.051 402.351 646.582 400.413C649.113 398.476 650.379 395.835 650.379 392.491C650.379 389.148 649.207 386.57 646.863 384.757C644.52 382.913 640.27 381.101 634.113 379.32ZM680.766 398.65H670.641V405.505H682.523V409.741H665.367V384.148H682.488V388.419H670.641V394.519H680.766V398.65ZM705.709 401.216C705.51 403.97 704.49 406.138 702.65 407.72C700.822 409.302 698.408 410.093 695.408 410.093C692.127 410.093 689.543 408.991 687.656 406.788C685.781 404.573 684.844 401.538 684.844 397.683V396.118C684.844 393.657 685.277 391.49 686.145 389.615C687.012 387.74 688.248 386.304 689.854 385.308C691.471 384.3 693.346 383.796 695.479 383.796C698.432 383.796 700.811 384.587 702.615 386.169C704.42 387.751 705.463 389.972 705.744 392.831H700.471C700.342 391.179 699.879 389.984 699.082 389.245C698.297 388.495 697.096 388.12 695.479 388.12C693.721 388.12 692.402 388.753 691.523 390.019C690.656 391.273 690.211 393.224 690.188 395.872V397.806C690.188 400.572 690.604 402.593 691.436 403.87C692.279 405.148 693.604 405.786 695.408 405.786C697.037 405.786 698.25 405.417 699.047 404.679C699.855 403.929 700.318 402.775 700.436 401.216H705.709Z" fill="#CC9D13" fill-opacity="0.27"/>
<path d="M1063.63 237.195H1072.68V285.523C1072.68 292.055 1070.71 297.164 1066.77 300.852C1062.86 304.539 1057.64 306.383 1051.11 306.383C1044.33 306.383 1039.05 304.648 1035.27 301.18C1031.49 297.711 1029.6 292.852 1029.6 286.602H1038.6C1038.6 290.508 1039.66 293.555 1041.79 295.742C1043.94 297.93 1047.05 299.023 1051.11 299.023C1054.83 299.023 1057.83 297.852 1060.11 295.508C1062.43 293.164 1063.6 289.883 1063.63 285.664V237.195ZM1108.11 275.023C1100.39 272.805 1094.77 270.086 1091.24 266.867C1087.74 263.617 1085.99 259.617 1085.99 254.867C1085.99 249.492 1088.13 245.055 1092.41 241.555C1096.72 238.023 1102.32 236.258 1109.19 236.258C1113.88 236.258 1118.05 237.164 1121.71 238.977C1125.39 240.789 1128.24 243.289 1130.24 246.477C1132.27 249.664 1133.29 253.148 1133.29 256.93H1124.24C1124.24 252.805 1122.93 249.57 1120.3 247.227C1117.68 244.852 1113.97 243.664 1109.19 243.664C1104.75 243.664 1101.29 244.648 1098.79 246.617C1096.32 248.555 1095.08 251.258 1095.08 254.727C1095.08 257.508 1096.25 259.867 1098.6 261.805C1100.97 263.711 1104.99 265.461 1110.64 267.055C1116.33 268.648 1120.77 270.414 1123.96 272.352C1127.18 274.258 1129.55 276.492 1131.08 279.055C1132.64 281.617 1133.43 284.633 1133.43 288.102C1133.43 293.633 1131.27 298.07 1126.96 301.414C1122.64 304.727 1116.88 306.383 1109.66 306.383C1104.97 306.383 1100.6 305.492 1096.54 303.711C1092.47 301.898 1089.33 299.43 1087.11 296.305C1084.93 293.18 1083.83 289.633 1083.83 285.664H1092.88C1092.88 289.789 1094.39 293.055 1097.43 295.461C1100.49 297.836 1104.57 299.023 1109.66 299.023C1114.41 299.023 1118.05 298.055 1120.58 296.117C1123.11 294.18 1124.38 291.539 1124.38 288.195C1124.38 284.852 1123.21 282.273 1120.86 280.461C1118.52 278.617 1114.27 276.805 1108.11 275.023ZM1154.77 294.354H1144.64V301.209H1156.52V305.445H1139.37V279.852H1156.49V284.123H1144.64V290.223H1154.77V294.354ZM1179.71 296.92C1179.51 299.674 1178.49 301.842 1176.65 303.424C1174.82 305.006 1172.41 305.797 1169.41 305.797C1166.13 305.797 1163.54 304.695 1161.66 302.492C1159.78 300.277 1158.84 297.242 1158.84 293.387V291.822C1158.84 289.361 1159.28 287.193 1160.14 285.318C1161.01 283.443 1162.25 282.008 1163.85 281.012C1165.47 280.004 1167.35 279.5 1169.48 279.5C1172.43 279.5 1174.81 280.291 1176.62 281.873C1178.42 283.455 1179.46 285.676 1179.74 288.535H1174.47C1174.34 286.883 1173.88 285.688 1173.08 284.949C1172.3 284.199 1171.1 283.824 1169.48 283.824C1167.72 283.824 1166.4 284.457 1165.52 285.723C1164.66 286.977 1164.21 288.928 1164.19 291.576V293.51C1164.19 296.275 1164.6 298.297 1165.44 299.574C1166.28 300.852 1167.6 301.49 1169.41 301.49C1171.04 301.49 1172.25 301.121 1173.05 300.383C1173.86 299.633 1174.32 298.479 1174.44 296.92H1179.71Z" fill="#CC9D13" fill-opacity="0.27"/>
<path d="M903.629 344.036H912.676V392.364C912.676 398.896 910.707 404.005 906.77 407.692C902.863 411.38 897.645 413.224 891.113 413.224C884.332 413.224 879.051 411.489 875.27 408.021C871.488 404.552 869.598 399.692 869.598 393.442H878.598C878.598 397.349 879.66 400.396 881.785 402.583C883.941 404.771 887.051 405.864 891.113 405.864C894.832 405.864 897.832 404.692 900.113 402.349C902.426 400.005 903.598 396.724 903.629 392.505V344.036ZM948.113 381.864C940.395 379.646 934.77 376.927 931.238 373.708C927.738 370.458 925.988 366.458 925.988 361.708C925.988 356.333 928.129 351.896 932.41 348.396C936.723 344.864 942.316 343.099 949.191 343.099C953.879 343.099 958.051 344.005 961.707 345.817C965.395 347.63 968.238 350.13 970.238 353.317C972.27 356.505 973.285 359.989 973.285 363.771H964.238C964.238 359.646 962.926 356.411 960.301 354.067C957.676 351.692 953.973 350.505 949.191 350.505C944.754 350.505 941.285 351.489 938.785 353.458C936.316 355.396 935.082 358.099 935.082 361.567C935.082 364.349 936.254 366.708 938.598 368.646C940.973 370.552 944.988 372.302 950.645 373.896C956.332 375.489 960.77 377.255 963.957 379.192C967.176 381.099 969.551 383.333 971.082 385.896C972.645 388.458 973.426 391.474 973.426 394.942C973.426 400.474 971.27 404.911 966.957 408.255C962.645 411.567 956.879 413.224 949.66 413.224C944.973 413.224 940.598 412.333 936.535 410.552C932.473 408.739 929.332 406.271 927.113 403.146C924.926 400.021 923.832 396.474 923.832 392.505H932.879C932.879 396.63 934.395 399.896 937.426 402.302C940.488 404.677 944.566 405.864 949.66 405.864C954.41 405.864 958.051 404.896 960.582 402.958C963.113 401.021 964.379 398.38 964.379 395.036C964.379 391.692 963.207 389.114 960.863 387.302C958.52 385.458 954.27 383.646 948.113 381.864ZM994.766 401.194H984.641V408.05H996.523V412.286H979.367V386.692H996.488V390.964H984.641V397.063H994.766V401.194ZM1019.71 403.761C1019.51 406.515 1018.49 408.683 1016.65 410.265C1014.82 411.847 1012.41 412.638 1009.41 412.638C1006.13 412.638 1003.54 411.536 1001.66 409.333C999.781 407.118 998.844 404.083 998.844 400.228V398.663C998.844 396.202 999.277 394.034 1000.14 392.159C1001.01 390.284 1002.25 388.849 1003.85 387.853C1005.47 386.845 1007.35 386.341 1009.48 386.341C1012.43 386.341 1014.81 387.132 1016.62 388.714C1018.42 390.296 1019.46 392.517 1019.74 395.376H1014.47C1014.34 393.724 1013.88 392.528 1013.08 391.79C1012.3 391.04 1011.1 390.665 1009.48 390.665C1007.72 390.665 1006.4 391.298 1005.52 392.563C1004.66 393.817 1004.21 395.769 1004.19 398.417V400.351C1004.19 403.116 1004.6 405.138 1005.44 406.415C1006.28 407.692 1007.6 408.331 1009.41 408.331C1011.04 408.331 1012.25 407.962 1013.05 407.224C1013.86 406.474 1014.32 405.319 1014.44 403.761H1019.71Z" fill="#CC9D13" fill-opacity="0.27"/>
<path d="M1377.63 239.74H1386.68V288.068C1386.68 294.6 1384.71 299.709 1380.77 303.396C1376.86 307.084 1371.64 308.928 1365.11 308.928C1358.33 308.928 1353.05 307.193 1349.27 303.725C1345.49 300.256 1343.6 295.396 1343.6 289.146H1352.6C1352.6 293.053 1353.66 296.1 1355.79 298.287C1357.94 300.475 1361.05 301.568 1365.11 301.568C1368.83 301.568 1371.83 300.396 1374.11 298.053C1376.43 295.709 1377.6 292.428 1377.63 288.209V239.74ZM1422.11 277.568C1414.39 275.35 1408.77 272.631 1405.24 269.412C1401.74 266.162 1399.99 262.162 1399.99 257.412C1399.99 252.037 1402.13 247.6 1406.41 244.1C1410.72 240.568 1416.32 238.803 1423.19 238.803C1427.88 238.803 1432.05 239.709 1435.71 241.521C1439.39 243.334 1442.24 245.834 1444.24 249.021C1446.27 252.209 1447.29 255.693 1447.29 259.475H1438.24C1438.24 255.35 1436.93 252.115 1434.3 249.771C1431.68 247.396 1427.97 246.209 1423.19 246.209C1418.75 246.209 1415.29 247.193 1412.79 249.162C1410.32 251.1 1409.08 253.803 1409.08 257.271C1409.08 260.053 1410.25 262.412 1412.6 264.35C1414.97 266.256 1418.99 268.006 1424.64 269.6C1430.33 271.193 1434.77 272.959 1437.96 274.896C1441.18 276.803 1443.55 279.037 1445.08 281.6C1446.64 284.162 1447.43 287.178 1447.43 290.646C1447.43 296.178 1445.27 300.615 1440.96 303.959C1436.64 307.271 1430.88 308.928 1423.66 308.928C1418.97 308.928 1414.6 308.037 1410.54 306.256C1406.47 304.443 1403.33 301.975 1401.11 298.85C1398.93 295.725 1397.83 292.178 1397.83 288.209H1406.88C1406.88 292.334 1408.39 295.6 1411.43 298.006C1414.49 300.381 1418.57 301.568 1423.66 301.568C1428.41 301.568 1432.05 300.6 1434.58 298.662C1437.11 296.725 1438.38 294.084 1438.38 290.74C1438.38 287.396 1437.21 284.818 1434.86 283.006C1432.52 281.162 1428.27 279.35 1422.11 277.568ZM1468.77 296.898H1458.64V303.754H1470.52V307.99H1453.37V282.396H1470.49V286.668H1458.64V292.768H1468.77V296.898ZM1493.71 299.465C1493.51 302.219 1492.49 304.387 1490.65 305.969C1488.82 307.551 1486.41 308.342 1483.41 308.342C1480.13 308.342 1477.54 307.24 1475.66 305.037C1473.78 302.822 1472.84 299.787 1472.84 295.932V294.367C1472.84 291.906 1473.28 289.738 1474.14 287.863C1475.01 285.988 1476.25 284.553 1477.85 283.557C1479.47 282.549 1481.35 282.045 1483.48 282.045C1486.43 282.045 1488.81 282.836 1490.62 284.418C1492.42 286 1493.46 288.221 1493.74 291.08H1488.47C1488.34 289.428 1487.88 288.232 1487.08 287.494C1486.3 286.744 1485.1 286.369 1483.48 286.369C1481.72 286.369 1480.4 287.002 1479.52 288.268C1478.66 289.521 1478.21 291.473 1478.19 294.121V296.055C1478.19 298.82 1478.6 300.842 1479.44 302.119C1480.28 303.396 1481.6 304.035 1483.41 304.035C1485.04 304.035 1486.25 303.666 1487.05 302.928C1487.86 302.178 1488.32 301.023 1488.44 299.465H1493.71Z" fill="#CC9D13" fill-opacity="0.27"/>
<path d="M120.629 20.75H129.676V69.0781C129.676 75.6094 127.707 80.7188 123.77 84.4062C119.863 88.0938 114.645 89.9375 108.113 89.9375C101.332 89.9375 96.0508 88.2031 92.2695 84.7344C88.4883 81.2656 86.5977 76.4062 86.5977 70.1562H95.5977C95.5977 74.0625 96.6602 77.1094 98.7852 79.2969C100.941 81.4844 104.051 82.5781 108.113 82.5781C111.832 82.5781 114.832 81.4062 117.113 79.0625C119.426 76.7188 120.598 73.4375 120.629 69.2188V20.75ZM165.113 58.5781C157.395 56.3594 151.77 53.6406 148.238 50.4219C144.738 47.1719 142.988 43.1719 142.988 38.4219C142.988 33.0469 145.129 28.6094 149.41 25.1094C153.723 21.5781 159.316 19.8125 166.191 19.8125C170.879 19.8125 175.051 20.7187 178.707 22.5312C182.395 24.3438 185.238 26.8438 187.238 30.0312C189.27 33.2188 190.285 36.7031 190.285 40.4844H181.238C181.238 36.3594 179.926 33.125 177.301 30.7812C174.676 28.4062 170.973 27.2188 166.191 27.2188C161.754 27.2188 158.285 28.2031 155.785 30.1719C153.316 32.1094 152.082 34.8125 152.082 38.2812C152.082 41.0625 153.254 43.4219 155.598 45.3594C157.973 47.2656 161.988 49.0156 167.645 50.6094C173.332 52.2031 177.77 53.9688 180.957 55.9062C184.176 57.8125 186.551 60.0469 188.082 62.6094C189.645 65.1719 190.426 68.1875 190.426 71.6562C190.426 77.1875 188.27 81.625 183.957 84.9688C179.645 88.2812 173.879 89.9375 166.66 89.9375C161.973 89.9375 157.598 89.0469 153.535 87.2656C149.473 85.4531 146.332 82.9844 144.113 79.8594C141.926 76.7344 140.832 73.1875 140.832 69.2188H149.879C149.879 73.3438 151.395 76.6094 154.426 79.0156C157.488 81.3906 161.566 82.5781 166.66 82.5781C171.41 82.5781 175.051 81.6094 177.582 79.6719C180.113 77.7344 181.379 75.0938 181.379 71.75C181.379 68.4062 180.207 65.8281 177.863 64.0156C175.52 62.1719 171.27 60.3594 165.113 58.5781ZM211.766 77.9082H201.641V84.7637H213.523V89H196.367V63.4062H213.488V67.6777H201.641V73.7773H211.766V77.9082ZM236.709 80.4746C236.51 83.2285 235.49 85.3965 233.65 86.9785C231.822 88.5605 229.408 89.3516 226.408 89.3516C223.127 89.3516 220.543 88.25 218.656 86.0469C216.781 83.832 215.844 80.7969 215.844 76.9414V75.377C215.844 72.916 216.277 70.748 217.145 68.873C218.012 66.998 219.248 65.5625 220.854 64.5664C222.471 63.5586 224.346 63.0547 226.479 63.0547C229.432 63.0547 231.811 63.8457 233.615 65.4277C235.42 67.0098 236.463 69.2305 236.744 72.0898H231.471C231.342 70.4375 230.879 69.2422 230.082 68.5039C229.297 67.7539 228.096 67.3789 226.479 67.3789C224.721 67.3789 223.402 68.0117 222.523 69.2773C221.656 70.5312 221.211 72.4824 221.188 75.1309V77.0645C221.188 79.8301 221.604 81.8516 222.436 83.1289C223.279 84.4062 224.604 85.0449 226.408 85.0449C228.037 85.0449 229.25 84.6758 230.047 83.9375C230.855 83.1875 231.318 82.0332 231.436 80.4746H236.709Z" fill="#CC9D13" fill-opacity="0.27"/>
<path d="M-39.3711 127.591H-30.3242V175.919C-30.3242 182.45 -32.293 187.56 -36.2305 191.247C-40.1367 194.935 -45.3555 196.778 -51.8867 196.778C-58.668 196.778 -63.9492 195.044 -67.7305 191.575C-71.5117 188.106 -73.4023 183.247 -73.4023 176.997H-64.4023C-64.4023 180.903 -63.3398 183.95 -61.2148 186.138C-59.0586 188.325 -55.9492 189.419 -51.8867 189.419C-48.168 189.419 -45.168 188.247 -42.8867 185.903C-40.5742 183.56 -39.4023 180.278 -39.3711 176.06V127.591ZM5.11328 165.419C-2.60547 163.2 -8.23047 160.481 -11.7617 157.263C-15.2617 154.013 -17.0117 150.013 -17.0117 145.263C-17.0117 139.888 -14.8711 135.45 -10.5898 131.95C-6.27734 128.419 -0.683594 126.653 6.19141 126.653C10.8789 126.653 15.0508 127.56 18.707 129.372C22.3945 131.185 25.2383 133.685 27.2383 136.872C29.2695 140.06 30.2852 143.544 30.2852 147.325H21.2383C21.2383 143.2 19.9258 139.966 17.3008 137.622C14.6758 135.247 10.9727 134.06 6.19141 134.06C1.75391 134.06 -1.71484 135.044 -4.21484 137.013C-6.68359 138.95 -7.91797 141.653 -7.91797 145.122C-7.91797 147.903 -6.74609 150.263 -4.40234 152.2C-2.02734 154.106 1.98828 155.856 7.64453 157.45C13.332 159.044 17.7695 160.81 20.957 162.747C24.1758 164.653 26.5508 166.888 28.082 169.45C29.6445 172.013 30.4258 175.028 30.4258 178.497C30.4258 184.028 28.2695 188.466 23.957 191.81C19.6445 195.122 13.8789 196.778 6.66016 196.778C1.97266 196.778 -2.40234 195.888 -6.46484 194.106C-10.5273 192.294 -13.668 189.825 -15.8867 186.7C-18.0742 183.575 -19.168 180.028 -19.168 176.06H-10.1211C-10.1211 180.185 -8.60547 183.45 -5.57422 185.856C-2.51172 188.231 1.56641 189.419 6.66016 189.419C11.4102 189.419 15.0508 188.45 17.582 186.513C20.1133 184.575 21.3789 181.935 21.3789 178.591C21.3789 175.247 20.207 172.669 17.8633 170.856C15.5195 169.013 11.2695 167.2 5.11328 165.419ZM51.7656 184.749H41.6406V191.604H53.5234V195.841H36.3672V170.247H53.4883V174.519H41.6406V180.618H51.7656V184.749ZM76.709 187.315C76.5098 190.069 75.4902 192.237 73.6504 193.819C71.8223 195.401 69.4082 196.192 66.4082 196.192C63.127 196.192 60.543 195.091 58.6562 192.888C56.7812 190.673 55.8438 187.638 55.8438 183.782V182.218C55.8438 179.757 56.2773 177.589 57.1445 175.714C58.0117 173.839 59.248 172.403 60.8535 171.407C62.4707 170.399 64.3457 169.896 66.4785 169.896C69.4316 169.896 71.8105 170.687 73.6152 172.269C75.4199 173.851 76.4629 176.071 76.7441 178.931H71.4707C71.3418 177.278 70.8789 176.083 70.082 175.345C69.2969 174.595 68.0957 174.22 66.4785 174.22C64.7207 174.22 63.4023 174.853 62.5234 176.118C61.6562 177.372 61.2109 179.323 61.1875 181.972V183.905C61.1875 186.671 61.6035 188.692 62.4355 189.97C63.2793 191.247 64.6035 191.886 66.4082 191.886C68.0371 191.886 69.25 191.517 70.0469 190.778C70.8555 190.028 71.3184 188.874 71.4355 187.315H76.709Z" fill="#CC9D13" fill-opacity="0.27"/>
<path d="M434.629 20.75H443.676V69.0781C443.676 75.6094 441.707 80.7188 437.77 84.4062C433.863 88.0938 428.645 89.9375 422.113 89.9375C415.332 89.9375 410.051 88.2031 406.27 84.7344C402.488 81.2656 400.598 76.4062 400.598 70.1562H409.598C409.598 74.0625 410.66 77.1094 412.785 79.2969C414.941 81.4844 418.051 82.5781 422.113 82.5781C425.832 82.5781 428.832 81.4062 431.113 79.0625C433.426 76.7188 434.598 73.4375 434.629 69.2188V20.75ZM479.113 58.5781C471.395 56.3594 465.77 53.6406 462.238 50.4219C458.738 47.1719 456.988 43.1719 456.988 38.4219C456.988 33.0469 459.129 28.6094 463.41 25.1094C467.723 21.5781 473.316 19.8125 480.191 19.8125C484.879 19.8125 489.051 20.7187 492.707 22.5312C496.395 24.3438 499.238 26.8438 501.238 30.0312C503.27 33.2188 504.285 36.7031 504.285 40.4844H495.238C495.238 36.3594 493.926 33.125 491.301 30.7812C488.676 28.4062 484.973 27.2188 480.191 27.2188C475.754 27.2188 472.285 28.2031 469.785 30.1719C467.316 32.1094 466.082 34.8125 466.082 38.2812C466.082 41.0625 467.254 43.4219 469.598 45.3594C471.973 47.2656 475.988 49.0156 481.645 50.6094C487.332 52.2031 491.77 53.9688 494.957 55.9062C498.176 57.8125 500.551 60.0469 502.082 62.6094C503.645 65.1719 504.426 68.1875 504.426 71.6562C504.426 77.1875 502.27 81.625 497.957 84.9688C493.645 88.2812 487.879 89.9375 480.66 89.9375C475.973 89.9375 471.598 89.0469 467.535 87.2656C463.473 85.4531 460.332 82.9844 458.113 79.8594C455.926 76.7344 454.832 73.1875 454.832 69.2188H463.879C463.879 73.3438 465.395 76.6094 468.426 79.0156C471.488 81.3906 475.566 82.5781 480.66 82.5781C485.41 82.5781 489.051 81.6094 491.582 79.6719C494.113 77.7344 495.379 75.0938 495.379 71.75C495.379 68.4062 494.207 65.8281 491.863 64.0156C489.52 62.1719 485.27 60.3594 479.113 58.5781ZM525.766 77.9082H515.641V84.7637H527.523V89H510.367V63.4062H527.488V67.6777H515.641V73.7773H525.766V77.9082ZM550.709 80.4746C550.51 83.2285 549.49 85.3965 547.65 86.9785C545.822 88.5605 543.408 89.3516 540.408 89.3516C537.127 89.3516 534.543 88.25 532.656 86.0469C530.781 83.832 529.844 80.7969 529.844 76.9414V75.377C529.844 72.916 530.277 70.748 531.145 68.873C532.012 66.998 533.248 65.5625 534.854 64.5664C536.471 63.5586 538.346 63.0547 540.479 63.0547C543.432 63.0547 545.811 63.8457 547.615 65.4277C549.42 67.0098 550.463 69.2305 550.744 72.0898H545.471C545.342 70.4375 544.879 69.2422 544.082 68.5039C543.297 67.7539 542.096 67.3789 540.479 67.3789C538.721 67.3789 537.402 68.0117 536.523 69.2773C535.656 70.5312 535.211 72.4824 535.188 75.1309V77.0645C535.188 79.8301 535.604 81.8516 536.436 83.1289C537.279 84.4062 538.604 85.0449 540.408 85.0449C542.037 85.0449 543.25 84.6758 544.047 83.9375C544.855 83.1875 545.318 82.0332 545.436 80.4746H550.709Z" fill="#CC9D13" fill-opacity="0.27"/>
<path d="M274.629 127.591H283.676V175.919C283.676 182.45 281.707 187.56 277.77 191.247C273.863 194.935 268.645 196.778 262.113 196.778C255.332 196.778 250.051 195.044 246.27 191.575C242.488 188.106 240.598 183.247 240.598 176.997H249.598C249.598 180.903 250.66 183.95 252.785 186.138C254.941 188.325 258.051 189.419 262.113 189.419C265.832 189.419 268.832 188.247 271.113 185.903C273.426 183.56 274.598 180.278 274.629 176.06V127.591ZM319.113 165.419C311.395 163.2 305.77 160.481 302.238 157.263C298.738 154.013 296.988 150.013 296.988 145.263C296.988 139.888 299.129 135.45 303.41 131.95C307.723 128.419 313.316 126.653 320.191 126.653C324.879 126.653 329.051 127.56 332.707 129.372C336.395 131.185 339.238 133.685 341.238 136.872C343.27 140.06 344.285 143.544 344.285 147.325H335.238C335.238 143.2 333.926 139.966 331.301 137.622C328.676 135.247 324.973 134.06 320.191 134.06C315.754 134.06 312.285 135.044 309.785 137.013C307.316 138.95 306.082 141.653 306.082 145.122C306.082 147.903 307.254 150.263 309.598 152.2C311.973 154.106 315.988 155.856 321.645 157.45C327.332 159.044 331.77 160.81 334.957 162.747C338.176 164.653 340.551 166.888 342.082 169.45C343.645 172.013 344.426 175.028 344.426 178.497C344.426 184.028 342.27 188.466 337.957 191.81C333.645 195.122 327.879 196.778 320.66 196.778C315.973 196.778 311.598 195.888 307.535 194.106C303.473 192.294 300.332 189.825 298.113 186.7C295.926 183.575 294.832 180.028 294.832 176.06H303.879C303.879 180.185 305.395 183.45 308.426 185.856C311.488 188.231 315.566 189.419 320.66 189.419C325.41 189.419 329.051 188.45 331.582 186.513C334.113 184.575 335.379 181.935 335.379 178.591C335.379 175.247 334.207 172.669 331.863 170.856C329.52 169.013 325.27 167.2 319.113 165.419ZM365.766 184.749H355.641V191.604H367.523V195.841H350.367V170.247H367.488V174.519H355.641V180.618H365.766V184.749ZM390.709 187.315C390.51 190.069 389.49 192.237 387.65 193.819C385.822 195.401 383.408 196.192 380.408 196.192C377.127 196.192 374.543 195.091 372.656 192.888C370.781 190.673 369.844 187.638 369.844 183.782V182.218C369.844 179.757 370.277 177.589 371.145 175.714C372.012 173.839 373.248 172.403 374.854 171.407C376.471 170.399 378.346 169.896 380.479 169.896C383.432 169.896 385.811 170.687 387.615 172.269C389.42 173.851 390.463 176.071 390.744 178.931H385.471C385.342 177.278 384.879 176.083 384.082 175.345C383.297 174.595 382.096 174.22 380.479 174.22C378.721 174.22 377.402 174.853 376.523 176.118C375.656 177.372 375.211 179.323 375.188 181.972V183.905C375.188 186.671 375.604 188.692 376.436 189.97C377.279 191.247 378.604 191.886 380.408 191.886C382.037 191.886 383.25 191.517 384.047 190.778C384.855 190.028 385.318 188.874 385.436 187.315H390.709Z" fill="#CC9D13" fill-opacity="0.27"/>
<path d="M752.629 20.75H761.676V69.0781C761.676 75.6094 759.707 80.7188 755.77 84.4062C751.863 88.0938 746.645 89.9375 740.113 89.9375C733.332 89.9375 728.051 88.2031 724.27 84.7344C720.488 81.2656 718.598 76.4062 718.598 70.1562H727.598C727.598 74.0625 728.66 77.1094 730.785 79.2969C732.941 81.4844 736.051 82.5781 740.113 82.5781C743.832 82.5781 746.832 81.4062 749.113 79.0625C751.426 76.7188 752.598 73.4375 752.629 69.2188V20.75ZM797.113 58.5781C789.395 56.3594 783.77 53.6406 780.238 50.4219C776.738 47.1719 774.988 43.1719 774.988 38.4219C774.988 33.0469 777.129 28.6094 781.41 25.1094C785.723 21.5781 791.316 19.8125 798.191 19.8125C802.879 19.8125 807.051 20.7187 810.707 22.5312C814.395 24.3438 817.238 26.8438 819.238 30.0312C821.27 33.2188 822.285 36.7031 822.285 40.4844H813.238C813.238 36.3594 811.926 33.125 809.301 30.7812C806.676 28.4062 802.973 27.2188 798.191 27.2188C793.754 27.2188 790.285 28.2031 787.785 30.1719C785.316 32.1094 784.082 34.8125 784.082 38.2812C784.082 41.0625 785.254 43.4219 787.598 45.3594C789.973 47.2656 793.988 49.0156 799.645 50.6094C805.332 52.2031 809.77 53.9688 812.957 55.9062C816.176 57.8125 818.551 60.0469 820.082 62.6094C821.645 65.1719 822.426 68.1875 822.426 71.6562C822.426 77.1875 820.27 81.625 815.957 84.9688C811.645 88.2812 805.879 89.9375 798.66 89.9375C793.973 89.9375 789.598 89.0469 785.535 87.2656C781.473 85.4531 778.332 82.9844 776.113 79.8594C773.926 76.7344 772.832 73.1875 772.832 69.2188H781.879C781.879 73.3438 783.395 76.6094 786.426 79.0156C789.488 81.3906 793.566 82.5781 798.66 82.5781C803.41 82.5781 807.051 81.6094 809.582 79.6719C812.113 77.7344 813.379 75.0938 813.379 71.75C813.379 68.4062 812.207 65.8281 809.863 64.0156C807.52 62.1719 803.27 60.3594 797.113 58.5781ZM843.766 77.9082H833.641V84.7637H845.523V89H828.367V63.4062H845.488V67.6777H833.641V73.7773H843.766V77.9082ZM868.709 80.4746C868.51 83.2285 867.49 85.3965 865.65 86.9785C863.822 88.5605 861.408 89.3516 858.408 89.3516C855.127 89.3516 852.543 88.25 850.656 86.0469C848.781 83.832 847.844 80.7969 847.844 76.9414V75.377C847.844 72.916 848.277 70.748 849.145 68.873C850.012 66.998 851.248 65.5625 852.854 64.5664C854.471 63.5586 856.346 63.0547 858.479 63.0547C861.432 63.0547 863.811 63.8457 865.615 65.4277C867.42 67.0098 868.463 69.2305 868.744 72.0898H863.471C863.342 70.4375 862.879 69.2422 862.082 68.5039C861.297 67.7539 860.096 67.3789 858.479 67.3789C856.721 67.3789 855.402 68.0117 854.523 69.2773C853.656 70.5312 853.211 72.4824 853.188 75.1309V77.0645C853.188 79.8301 853.604 81.8516 854.436 83.1289C855.279 84.4062 856.604 85.0449 858.408 85.0449C860.037 85.0449 861.25 84.6758 862.047 83.9375C862.855 83.1875 863.318 82.0332 863.436 80.4746H868.709Z" fill="#CC9D13" fill-opacity="0.27"/>
<path d="M592.629 127.591H601.676V175.919C601.676 182.45 599.707 187.56 595.77 191.247C591.863 194.935 586.645 196.778 580.113 196.778C573.332 196.778 568.051 195.044 564.27 191.575C560.488 188.106 558.598 183.247 558.598 176.997H567.598C567.598 180.903 568.66 183.95 570.785 186.138C572.941 188.325 576.051 189.419 580.113 189.419C583.832 189.419 586.832 188.247 589.113 185.903C591.426 183.56 592.598 180.278 592.629 176.06V127.591ZM637.113 165.419C629.395 163.2 623.77 160.481 620.238 157.263C616.738 154.013 614.988 150.013 614.988 145.263C614.988 139.888 617.129 135.45 621.41 131.95C625.723 128.419 631.316 126.653 638.191 126.653C642.879 126.653 647.051 127.56 650.707 129.372C654.395 131.185 657.238 133.685 659.238 136.872C661.27 140.06 662.285 143.544 662.285 147.325H653.238C653.238 143.2 651.926 139.966 649.301 137.622C646.676 135.247 642.973 134.06 638.191 134.06C633.754 134.06 630.285 135.044 627.785 137.013C625.316 138.95 624.082 141.653 624.082 145.122C624.082 147.903 625.254 150.263 627.598 152.2C629.973 154.106 633.988 155.856 639.645 157.45C645.332 159.044 649.77 160.81 652.957 162.747C656.176 164.653 658.551 166.888 660.082 169.45C661.645 172.013 662.426 175.028 662.426 178.497C662.426 184.028 660.27 188.466 655.957 191.81C651.645 195.122 645.879 196.778 638.66 196.778C633.973 196.778 629.598 195.888 625.535 194.106C621.473 192.294 618.332 189.825 616.113 186.7C613.926 183.575 612.832 180.028 612.832 176.06H621.879C621.879 180.185 623.395 183.45 626.426 185.856C629.488 188.231 633.566 189.419 638.66 189.419C643.41 189.419 647.051 188.45 649.582 186.513C652.113 184.575 653.379 181.935 653.379 178.591C653.379 175.247 652.207 172.669 649.863 170.856C647.52 169.013 643.27 167.2 637.113 165.419ZM683.766 184.749H673.641V191.604H685.523V195.841H668.367V170.247H685.488V174.519H673.641V180.618H683.766V184.749ZM708.709 187.315C708.51 190.069 707.49 192.237 705.65 193.819C703.822 195.401 701.408 196.192 698.408 196.192C695.127 196.192 692.543 195.091 690.656 192.888C688.781 190.673 687.844 187.638 687.844 183.782V182.218C687.844 179.757 688.277 177.589 689.145 175.714C690.012 173.839 691.248 172.403 692.854 171.407C694.471 170.399 696.346 169.896 698.479 169.896C701.432 169.896 703.811 170.687 705.615 172.269C707.42 173.851 708.463 176.071 708.744 178.931H703.471C703.342 177.278 702.879 176.083 702.082 175.345C701.297 174.595 700.096 174.22 698.479 174.22C696.721 174.22 695.402 174.853 694.523 176.118C693.656 177.372 693.211 179.323 693.188 181.972V183.905C693.188 186.671 693.604 188.692 694.436 189.97C695.279 191.247 696.604 191.886 698.408 191.886C700.037 191.886 701.25 191.517 702.047 190.778C702.855 190.028 703.318 188.874 703.436 187.315H708.709Z" fill="#CC9D13" fill-opacity="0.27"/>
<path d="M1069.63 20.75H1078.68V69.0781C1078.68 75.6094 1076.71 80.7188 1072.77 84.4062C1068.86 88.0938 1063.64 89.9375 1057.11 89.9375C1050.33 89.9375 1045.05 88.2031 1041.27 84.7344C1037.49 81.2656 1035.6 76.4062 1035.6 70.1562H1044.6C1044.6 74.0625 1045.66 77.1094 1047.79 79.2969C1049.94 81.4844 1053.05 82.5781 1057.11 82.5781C1060.83 82.5781 1063.83 81.4062 1066.11 79.0625C1068.43 76.7188 1069.6 73.4375 1069.63 69.2188V20.75ZM1114.11 58.5781C1106.39 56.3594 1100.77 53.6406 1097.24 50.4219C1093.74 47.1719 1091.99 43.1719 1091.99 38.4219C1091.99 33.0469 1094.13 28.6094 1098.41 25.1094C1102.72 21.5781 1108.32 19.8125 1115.19 19.8125C1119.88 19.8125 1124.05 20.7187 1127.71 22.5312C1131.39 24.3438 1134.24 26.8438 1136.24 30.0312C1138.27 33.2188 1139.29 36.7031 1139.29 40.4844H1130.24C1130.24 36.3594 1128.93 33.125 1126.3 30.7812C1123.68 28.4062 1119.97 27.2188 1115.19 27.2188C1110.75 27.2188 1107.29 28.2031 1104.79 30.1719C1102.32 32.1094 1101.08 34.8125 1101.08 38.2812C1101.08 41.0625 1102.25 43.4219 1104.6 45.3594C1106.97 47.2656 1110.99 49.0156 1116.64 50.6094C1122.33 52.2031 1126.77 53.9688 1129.96 55.9062C1133.18 57.8125 1135.55 60.0469 1137.08 62.6094C1138.64 65.1719 1139.43 68.1875 1139.43 71.6562C1139.43 77.1875 1137.27 81.625 1132.96 84.9688C1128.64 88.2812 1122.88 89.9375 1115.66 89.9375C1110.97 89.9375 1106.6 89.0469 1102.54 87.2656C1098.47 85.4531 1095.33 82.9844 1093.11 79.8594C1090.93 76.7344 1089.83 73.1875 1089.83 69.2188H1098.88C1098.88 73.3438 1100.39 76.6094 1103.43 79.0156C1106.49 81.3906 1110.57 82.5781 1115.66 82.5781C1120.41 82.5781 1124.05 81.6094 1126.58 79.6719C1129.11 77.7344 1130.38 75.0938 1130.38 71.75C1130.38 68.4062 1129.21 65.8281 1126.86 64.0156C1124.52 62.1719 1120.27 60.3594 1114.11 58.5781ZM1160.77 77.9082H1150.64V84.7637H1162.52V89H1145.37V63.4062H1162.49V67.6777H1150.64V73.7773H1160.77V77.9082ZM1185.71 80.4746C1185.51 83.2285 1184.49 85.3965 1182.65 86.9785C1180.82 88.5605 1178.41 89.3516 1175.41 89.3516C1172.13 89.3516 1169.54 88.25 1167.66 86.0469C1165.78 83.832 1164.84 80.7969 1164.84 76.9414V75.377C1164.84 72.916 1165.28 70.748 1166.14 68.873C1167.01 66.998 1168.25 65.5625 1169.85 64.5664C1171.47 63.5586 1173.35 63.0547 1175.48 63.0547C1178.43 63.0547 1180.81 63.8457 1182.62 65.4277C1184.42 67.0098 1185.46 69.2305 1185.74 72.0898H1180.47C1180.34 70.4375 1179.88 69.2422 1179.08 68.5039C1178.3 67.7539 1177.1 67.3789 1175.48 67.3789C1173.72 67.3789 1172.4 68.0117 1171.52 69.2773C1170.66 70.5312 1170.21 72.4824 1170.19 75.1309V77.0645C1170.19 79.8301 1170.6 81.8516 1171.44 83.1289C1172.28 84.4062 1173.6 85.0449 1175.41 85.0449C1177.04 85.0449 1178.25 84.6758 1179.05 83.9375C1179.86 83.1875 1180.32 82.0332 1180.44 80.4746H1185.71Z" fill="#CC9D13" fill-opacity="0.27"/>
<path d="M909.629 127.591H918.676V175.919C918.676 182.45 916.707 187.56 912.77 191.247C908.863 194.935 903.645 196.778 897.113 196.778C890.332 196.778 885.051 195.044 881.27 191.575C877.488 188.106 875.598 183.247 875.598 176.997H884.598C884.598 180.903 885.66 183.95 887.785 186.138C889.941 188.325 893.051 189.419 897.113 189.419C900.832 189.419 903.832 188.247 906.113 185.903C908.426 183.56 909.598 180.278 909.629 176.06V127.591ZM954.113 165.419C946.395 163.2 940.77 160.481 937.238 157.263C933.738 154.013 931.988 150.013 931.988 145.263C931.988 139.888 934.129 135.45 938.41 131.95C942.723 128.419 948.316 126.653 955.191 126.653C959.879 126.653 964.051 127.56 967.707 129.372C971.395 131.185 974.238 133.685 976.238 136.872C978.27 140.06 979.285 143.544 979.285 147.325H970.238C970.238 143.2 968.926 139.966 966.301 137.622C963.676 135.247 959.973 134.06 955.191 134.06C950.754 134.06 947.285 135.044 944.785 137.013C942.316 138.95 941.082 141.653 941.082 145.122C941.082 147.903 942.254 150.263 944.598 152.2C946.973 154.106 950.988 155.856 956.645 157.45C962.332 159.044 966.77 160.81 969.957 162.747C973.176 164.653 975.551 166.888 977.082 169.45C978.645 172.013 979.426 175.028 979.426 178.497C979.426 184.028 977.27 188.466 972.957 191.81C968.645 195.122 962.879 196.778 955.66 196.778C950.973 196.778 946.598 195.888 942.535 194.106C938.473 192.294 935.332 189.825 933.113 186.7C930.926 183.575 929.832 180.028 929.832 176.06H938.879C938.879 180.185 940.395 183.45 943.426 185.856C946.488 188.231 950.566 189.419 955.66 189.419C960.41 189.419 964.051 188.45 966.582 186.513C969.113 184.575 970.379 181.935 970.379 178.591C970.379 175.247 969.207 172.669 966.863 170.856C964.52 169.013 960.27 167.2 954.113 165.419ZM1000.77 184.749H990.641V191.604H1002.52V195.841H985.367V170.247H1002.49V174.519H990.641V180.618H1000.77V184.749ZM1025.71 187.315C1025.51 190.069 1024.49 192.237 1022.65 193.819C1020.82 195.401 1018.41 196.192 1015.41 196.192C1012.13 196.192 1009.54 195.091 1007.66 192.888C1005.78 190.673 1004.84 187.638 1004.84 183.782V182.218C1004.84 179.757 1005.28 177.589 1006.14 175.714C1007.01 173.839 1008.25 172.403 1009.85 171.407C1011.47 170.399 1013.35 169.896 1015.48 169.896C1018.43 169.896 1020.81 170.687 1022.62 172.269C1024.42 173.851 1025.46 176.071 1025.74 178.931H1020.47C1020.34 177.278 1019.88 176.083 1019.08 175.345C1018.3 174.595 1017.1 174.22 1015.48 174.22C1013.72 174.22 1012.4 174.853 1011.52 176.118C1010.66 177.372 1010.21 179.323 1010.19 181.972V183.905C1010.19 186.671 1010.6 188.692 1011.44 189.97C1012.28 191.247 1013.6 191.886 1015.41 191.886C1017.04 191.886 1018.25 191.517 1019.05 190.778C1019.86 190.028 1020.32 188.874 1020.44 187.315H1025.71Z" fill="#CC9D13" fill-opacity="0.27"/>
<path d="M1385.63 20.75H1394.68V69.0781C1394.68 75.6094 1392.71 80.7188 1388.77 84.4062C1384.86 88.0938 1379.64 89.9375 1373.11 89.9375C1366.33 89.9375 1361.05 88.2031 1357.27 84.7344C1353.49 81.2656 1351.6 76.4062 1351.6 70.1562H1360.6C1360.6 74.0625 1361.66 77.1094 1363.79 79.2969C1365.94 81.4844 1369.05 82.5781 1373.11 82.5781C1376.83 82.5781 1379.83 81.4062 1382.11 79.0625C1384.43 76.7188 1385.6 73.4375 1385.63 69.2188V20.75ZM1430.11 58.5781C1422.39 56.3594 1416.77 53.6406 1413.24 50.4219C1409.74 47.1719 1407.99 43.1719 1407.99 38.4219C1407.99 33.0469 1410.13 28.6094 1414.41 25.1094C1418.72 21.5781 1424.32 19.8125 1431.19 19.8125C1435.88 19.8125 1440.05 20.7187 1443.71 22.5312C1447.39 24.3438 1450.24 26.8438 1452.24 30.0312C1454.27 33.2188 1455.29 36.7031 1455.29 40.4844H1446.24C1446.24 36.3594 1444.93 33.125 1442.3 30.7812C1439.68 28.4062 1435.97 27.2188 1431.19 27.2188C1426.75 27.2188 1423.29 28.2031 1420.79 30.1719C1418.32 32.1094 1417.08 34.8125 1417.08 38.2812C1417.08 41.0625 1418.25 43.4219 1420.6 45.3594C1422.97 47.2656 1426.99 49.0156 1432.64 50.6094C1438.33 52.2031 1442.77 53.9688 1445.96 55.9062C1449.18 57.8125 1451.55 60.0469 1453.08 62.6094C1454.64 65.1719 1455.43 68.1875 1455.43 71.6562C1455.43 77.1875 1453.27 81.625 1448.96 84.9688C1444.64 88.2812 1438.88 89.9375 1431.66 89.9375C1426.97 89.9375 1422.6 89.0469 1418.54 87.2656C1414.47 85.4531 1411.33 82.9844 1409.11 79.8594C1406.93 76.7344 1405.83 73.1875 1405.83 69.2188H1414.88C1414.88 73.3438 1416.39 76.6094 1419.43 79.0156C1422.49 81.3906 1426.57 82.5781 1431.66 82.5781C1436.41 82.5781 1440.05 81.6094 1442.58 79.6719C1445.11 77.7344 1446.38 75.0938 1446.38 71.75C1446.38 68.4062 1445.21 65.8281 1442.86 64.0156C1440.52 62.1719 1436.27 60.3594 1430.11 58.5781ZM1476.77 77.9082H1466.64V84.7637H1478.52V89H1461.37V63.4062H1478.49V67.6777H1466.64V73.7773H1476.77V77.9082ZM1501.71 80.4746C1501.51 83.2285 1500.49 85.3965 1498.65 86.9785C1496.82 88.5605 1494.41 89.3516 1491.41 89.3516C1488.13 89.3516 1485.54 88.25 1483.66 86.0469C1481.78 83.832 1480.84 80.7969 1480.84 76.9414V75.377C1480.84 72.916 1481.28 70.748 1482.14 68.873C1483.01 66.998 1484.25 65.5625 1485.85 64.5664C1487.47 63.5586 1489.35 63.0547 1491.48 63.0547C1494.43 63.0547 1496.81 63.8457 1498.62 65.4277C1500.42 67.0098 1501.46 69.2305 1501.74 72.0898H1496.47C1496.34 70.4375 1495.88 69.2422 1495.08 68.5039C1494.3 67.7539 1493.1 67.3789 1491.48 67.3789C1489.72 67.3789 1488.4 68.0117 1487.52 69.2773C1486.66 70.5312 1486.21 72.4824 1486.19 75.1309V77.0645C1486.19 79.8301 1486.6 81.8516 1487.44 83.1289C1488.28 84.4062 1489.6 85.0449 1491.41 85.0449C1493.04 85.0449 1494.25 84.6758 1495.05 83.9375C1495.86 83.1875 1496.32 82.0332 1496.44 80.4746H1501.71Z" fill="#CC9D13" fill-opacity="0.27"/>
<path d="M1225.63 127.591H1234.68V175.919C1234.68 182.45 1232.71 187.56 1228.77 191.247C1224.86 194.935 1219.64 196.778 1213.11 196.778C1206.33 196.778 1201.05 195.044 1197.27 191.575C1193.49 188.106 1191.6 183.247 1191.6 176.997H1200.6C1200.6 180.903 1201.66 183.95 1203.79 186.138C1205.94 188.325 1209.05 189.419 1213.11 189.419C1216.83 189.419 1219.83 188.247 1222.11 185.903C1224.43 183.56 1225.6 180.278 1225.63 176.06V127.591ZM1270.11 165.419C1262.39 163.2 1256.77 160.481 1253.24 157.263C1249.74 154.013 1247.99 150.013 1247.99 145.263C1247.99 139.888 1250.13 135.45 1254.41 131.95C1258.72 128.419 1264.32 126.653 1271.19 126.653C1275.88 126.653 1280.05 127.56 1283.71 129.372C1287.39 131.185 1290.24 133.685 1292.24 136.872C1294.27 140.06 1295.29 143.544 1295.29 147.325H1286.24C1286.24 143.2 1284.93 139.966 1282.3 137.622C1279.68 135.247 1275.97 134.06 1271.19 134.06C1266.75 134.06 1263.29 135.044 1260.79 137.013C1258.32 138.95 1257.08 141.653 1257.08 145.122C1257.08 147.903 1258.25 150.263 1260.6 152.2C1262.97 154.106 1266.99 155.856 1272.64 157.45C1278.33 159.044 1282.77 160.81 1285.96 162.747C1289.18 164.653 1291.55 166.888 1293.08 169.45C1294.64 172.013 1295.43 175.028 1295.43 178.497C1295.43 184.028 1293.27 188.466 1288.96 191.81C1284.64 195.122 1278.88 196.778 1271.66 196.778C1266.97 196.778 1262.6 195.888 1258.54 194.106C1254.47 192.294 1251.33 189.825 1249.11 186.7C1246.93 183.575 1245.83 180.028 1245.83 176.06H1254.88C1254.88 180.185 1256.39 183.45 1259.43 185.856C1262.49 188.231 1266.57 189.419 1271.66 189.419C1276.41 189.419 1280.05 188.45 1282.58 186.513C1285.11 184.575 1286.38 181.935 1286.38 178.591C1286.38 175.247 1285.21 172.669 1282.86 170.856C1280.52 169.013 1276.27 167.2 1270.11 165.419ZM1316.77 184.749H1306.64V191.604H1318.52V195.841H1301.37V170.247H1318.49V174.519H1306.64V180.618H1316.77V184.749ZM1341.71 187.315C1341.51 190.069 1340.49 192.237 1338.65 193.819C1336.82 195.401 1334.41 196.192 1331.41 196.192C1328.13 196.192 1325.54 195.091 1323.66 192.888C1321.78 190.673 1320.84 187.638 1320.84 183.782V182.218C1320.84 179.757 1321.28 177.589 1322.14 175.714C1323.01 173.839 1324.25 172.403 1325.85 171.407C1327.47 170.399 1329.35 169.896 1331.48 169.896C1334.43 169.896 1336.81 170.687 1338.62 172.269C1340.42 173.851 1341.46 176.071 1341.74 178.931H1336.47C1336.34 177.278 1335.88 176.083 1335.08 175.345C1334.3 174.595 1333.1 174.22 1331.48 174.22C1329.72 174.22 1328.4 174.853 1327.52 176.118C1326.66 177.372 1326.21 179.323 1326.19 181.972V183.905C1326.19 186.671 1326.6 188.692 1327.44 189.97C1328.28 191.247 1329.6 191.886 1331.41 191.886C1333.04 191.886 1334.25 191.517 1335.05 190.778C1335.86 190.028 1336.32 188.874 1336.44 187.315H1341.71Z" fill="#CC9D13" fill-opacity="0.27"/>
</svg>
