<svg width="41" height="40" viewBox="0 0 41 40" fill="none" xmlns="http://www.w3.org/2000/svg">
<path fill-rule="evenodd" clip-rule="evenodd" d="M20.7959 40C31.9543 40 41 31.0457 41 20C41 8.95431 31.9543 0 20.7959 0C9.63747 0 0.591797 8.95431 0.591797 20C0.591797 31.0457 9.63747 40 20.7959 40Z" fill="#0971BD"/>
<path fill-rule="evenodd" clip-rule="evenodd" d="M21.0792 18.8775C19.5009 18.8775 11.3691 14.3128 11.3691 14.3128V13.6C11.3691 12.7168 12.0933 12 12.9871 12H29.1714C30.066 12 30.7901 12.7168 30.7901 13.6L30.7772 14.4C30.7772 14.4 22.7335 18.8775 21.0792 18.8775ZM21.0792 21.0775C22.8095 21.0775 30.7772 16.8 30.7772 16.8L30.7901 26.4C30.7901 27.2832 30.066 28 29.1714 28H12.9871C12.0941 28 11.3691 27.2832 11.3691 26.4L11.3821 16.8C11.3813 16.8 19.5009 21.0775 21.0792 21.0775Z" fill="white"/>
</svg>
