<svg width="41" height="41" viewBox="0 0 41 41" fill="none" xmlns="http://www.w3.org/2000/svg">
<ellipse cx="20.6748" cy="21" rx="20.2041" ry="20" fill="white"/>
<path fill-rule="evenodd" clip-rule="evenodd" d="M20.675 0C9.51792 0 0.470703 9.18079 0.470703 20.5063C0.470703 29.5666 6.25984 37.2532 14.2876 39.9648C15.2973 40.1546 15.6681 39.5199 15.6681 38.9783C15.6681 38.4893 15.6493 36.8739 15.6406 35.1604C10.0198 36.4009 8.83371 32.7409 8.83371 32.7409C7.91464 30.3707 6.59039 29.7404 6.59039 29.7404C4.75726 28.4677 6.72857 28.4939 6.72857 28.4939C8.75743 28.6385 9.82572 30.607 9.82572 30.607C11.6277 33.742 14.5523 32.8357 15.7052 32.3117C15.8865 30.9864 16.4101 30.0817 16.9879 29.5696C12.5003 29.0511 7.78282 27.2928 7.78282 19.4353C7.78282 17.1965 8.57208 15.3672 9.86454 13.9311C9.65476 13.4146 8.96319 11.329 10.0603 8.50435C10.0603 8.50435 11.7569 7.95322 15.6179 10.6063C17.2295 10.152 18.9579 9.92412 20.675 9.91631C22.392 9.92412 24.1217 10.152 25.7364 10.6063C29.5927 7.95322 31.287 8.50435 31.287 8.50435C32.3867 11.329 31.6948 13.4146 31.485 13.9311C32.7805 15.3672 33.5644 17.1965 33.5644 19.4353C33.5644 27.3115 28.8379 29.0457 24.3389 29.5533C25.0636 30.1897 25.7093 31.4377 25.7093 33.3508C25.7093 36.0946 25.6859 38.3029 25.6859 38.9783C25.6859 39.524 26.0495 40.1634 27.0737 39.962C35.0971 37.2475 40.8789 29.5635 40.8789 20.5063C40.8789 9.18079 31.833 0 20.675 0Z" fill="#161514"/>
<path fill-rule="evenodd" clip-rule="evenodd" d="M8.1834 29.3019C8.13892 29.4028 7.98108 29.4331 7.83729 29.3638C7.69082 29.2976 7.60856 29.16 7.65604 29.0588C7.69952 28.9549 7.85769 28.926 8.00382 28.9956C8.15063 29.0619 8.23423 29.2007 8.1834 29.3019Z" fill="#161514"/>
<path fill-rule="evenodd" clip-rule="evenodd" d="M8.99968 30.2191C8.90337 30.3089 8.7151 30.2672 8.58736 30.1253C8.45527 29.9838 8.43052 29.7945 8.52817 29.7033C8.62749 29.6136 8.81007 29.6556 8.94249 29.7972C9.07458 29.9404 9.10033 30.1283 8.99968 30.2191Z" fill="#161514"/>
<path fill-rule="evenodd" clip-rule="evenodd" d="M9.79357 31.3886C9.66985 31.475 9.46753 31.394 9.34247 31.2134C9.21874 31.0329 9.21874 30.8164 9.34514 30.7296C9.47054 30.6429 9.66985 30.7209 9.79658 30.9001C9.91998 31.0837 9.91998 31.3002 9.79357 31.3886Z" fill="#161514"/>
<path fill-rule="evenodd" clip-rule="evenodd" d="M10.8833 32.5183C10.7728 32.641 10.5373 32.608 10.365 32.4406C10.1887 32.2769 10.1396 32.0445 10.2505 31.9218C10.3624 31.7987 10.5991 31.8334 10.7728 31.9995C10.9478 32.1629 11.0012 32.3969 10.8833 32.5183Z" fill="#161514"/>
<path fill-rule="evenodd" clip-rule="evenodd" d="M12.3865 33.1742C12.3378 33.3332 12.111 33.4055 11.8826 33.3379C11.6545 33.2683 11.5052 33.0821 11.5513 32.9213C11.5987 32.7613 11.8265 32.686 12.0566 32.7583C12.2843 32.8275 12.434 33.0125 12.3865 33.1742Z" fill="#161514"/>
<path fill-rule="evenodd" clip-rule="evenodd" d="M14.0346 33.296C14.0403 33.4634 13.8466 33.6023 13.6068 33.6053C13.3657 33.6107 13.1706 33.4752 13.168 33.3104C13.168 33.1413 13.3573 33.0038 13.5984 32.9998C13.8382 32.995 14.0346 33.1295 14.0346 33.296Z" fill="#161514"/>
<path fill-rule="evenodd" clip-rule="evenodd" d="M15.5688 33.0327C15.5975 33.1961 15.4309 33.3639 15.1928 33.4086C14.9587 33.4516 14.7419 33.3508 14.7122 33.1887C14.6832 33.0213 14.8528 32.8535 15.0866 32.8101C15.325 32.7684 15.5384 32.8666 15.5688 33.0327Z" fill="#161514"/>
</svg>
