<svg width="41" height="40" viewBox="0 0 41 40" fill="none" xmlns="http://www.w3.org/2000/svg">
<path fill-rule="evenodd" clip-rule="evenodd" d="M0.152344 20C0.152344 8.95431 9.19802 0 20.3564 0C31.5148 0 40.5605 8.95431 40.5605 20C40.5605 31.0457 31.5148 40 20.3564 40C9.19802 40 0.152344 31.0457 0.152344 20Z" fill="#55ACEE"/>
<path fill-rule="evenodd" clip-rule="evenodd" d="M19.7528 16.2563L19.7952 16.9483L19.0886 16.8636C16.5165 16.5387 14.2694 15.4371 12.3616 13.5869L11.4288 12.6689L11.1886 13.3468C10.6798 14.858 11.0049 16.454 12.0648 17.5274C12.6301 18.1205 12.5029 18.2053 11.5278 17.8522C11.1886 17.7392 10.8918 17.6545 10.8635 17.6968C10.7646 17.7957 11.1038 19.0809 11.3723 19.5894C11.7398 20.2955 12.4888 20.9876 13.3084 21.3972L14.0009 21.722L13.1813 21.7361C12.3898 21.7361 12.3616 21.7502 12.4464 22.0468C12.729 22.9649 13.8455 23.9394 15.0891 24.3631L15.9653 24.6597L15.2022 25.1116C14.0716 25.7613 12.7432 26.1285 11.4147 26.1567C10.7788 26.1709 10.2559 26.2273 10.2559 26.2697C10.2559 26.411 11.98 27.2019 12.9834 27.5126C15.9936 28.4306 19.5691 28.0351 22.2542 26.4674C24.1621 25.3517 26.0699 23.1343 26.9603 20.9876C27.4408 19.8436 27.9213 17.7533 27.9213 16.7506C27.9213 16.1009 27.9637 16.0162 28.7551 15.2394C29.2215 14.7874 29.6596 14.2931 29.7444 14.1519C29.8857 13.8835 29.8715 13.8835 29.1508 14.1236C27.9495 14.5473 27.78 14.4908 28.3735 13.8553C28.8116 13.4033 29.3345 12.5842 29.3345 12.3441C29.3345 12.3017 29.1225 12.3723 28.8823 12.4994C28.6279 12.6407 28.0626 12.8525 27.6386 12.9796L26.8755 13.2197L26.183 12.7537C25.8014 12.4994 25.2644 12.217 24.9818 12.1322C24.261 11.9345 23.1587 11.9627 22.5086 12.1887C20.7421 12.8243 19.6256 14.4626 19.7528 16.2563Z" fill="white"/>
</svg>
