<svg width="59" height="59" viewBox="0 0 59 59" fill="none" xmlns="http://www.w3.org/2000/svg">
<path fill-rule="evenodd" clip-rule="evenodd" d="M0 29.5C0 13.2076 13.2076 0 29.5 0C45.7924 0 59 13.2076 59 29.5C59 45.7924 45.7924 59 29.5 59C13.2076 59 0 45.7924 0 29.5Z" fill="#55ACEE"/>
<path fill-rule="evenodd" clip-rule="evenodd" d="M28.6165 23.978L28.6784 24.9987L27.6467 24.8738C23.8911 24.3946 20.6102 22.7697 17.8246 20.0407L16.4627 18.6867L16.1119 19.6866C15.369 21.9156 15.8436 24.2696 17.3912 25.8529C18.2166 26.7278 18.0309 26.8528 16.6071 26.332C16.1119 26.1653 15.6786 26.0403 15.6373 26.1028C15.4928 26.2487 15.9881 28.1444 16.3801 28.8943C16.9166 29.9359 18.0103 30.9567 19.2071 31.5608L20.2182 32.04L19.0214 32.0608C17.8658 32.0608 17.8246 32.0816 17.9484 32.5191C18.3611 33.8732 19.9912 35.3106 21.807 35.9355L23.0864 36.373L21.9721 37.0396C20.3214 37.9979 18.3817 38.5395 16.442 38.5812C15.5135 38.602 14.75 38.6854 14.75 38.7478C14.75 38.9562 17.2674 40.1228 18.7325 40.5811C23.1277 41.9351 28.3482 41.3518 32.2688 39.0395C35.0545 37.3938 37.8402 34.1232 39.1401 30.9567C39.8417 29.2693 40.5433 26.1862 40.5433 24.7071C40.5433 23.7488 40.6052 23.6238 41.7607 22.4781C42.4417 21.8115 43.0814 21.0823 43.2052 20.874C43.4115 20.4782 43.3909 20.4782 42.3385 20.8324C40.5846 21.4573 40.337 21.374 41.2036 20.4365C41.8433 19.7699 42.6068 18.5617 42.6068 18.2075C42.6068 18.145 42.2972 18.2492 41.9465 18.4367C41.575 18.645 40.7496 18.9575 40.1306 19.145L39.0163 19.4991L38.0052 18.8117C37.4481 18.4367 36.664 18.02 36.2513 17.895C35.1989 17.6034 33.5894 17.6451 32.6402 17.9784C30.0609 18.9158 28.4308 21.3323 28.6165 23.978Z" fill="white"/>
</svg>
