<svg width="41" height="40" viewBox="0 0 41 40" fill="none" xmlns="http://www.w3.org/2000/svg">
<path fill-rule="evenodd" clip-rule="evenodd" d="M40.4394 20C40.4394 31.0457 31.3937 40 20.2353 40C9.07693 40 0.03125 31.0457 0.03125 20C0.03125 8.95431 9.07693 0 20.2353 0C31.3937 0 40.4394 8.95431 40.4394 20Z" fill="white"/>
<path fill-rule="evenodd" clip-rule="evenodd" d="M20.2333 8C13.5499 8 8.11133 13.3827 8.11133 19.9996C8.11133 26.6164 13.5499 31.9992 20.2333 31.9992C26.9177 31.9992 32.3562 26.6173 32.3562 19.9996C32.3562 13.3827 26.9177 8 20.2333 8ZM31.3077 19.9996C31.3077 20.2096 31.2889 20.4146 31.2761 20.6221C31.1982 20.4273 31.0801 20.1732 31.0519 20.064C31.0108 19.8979 30.7601 19.3194 30.7601 19.3194C30.7601 19.3194 30.5094 18.9891 30.3426 18.9061C30.1766 18.8231 30.0508 18.6164 29.7582 18.4521C29.4655 18.2861 29.3415 18.2039 29.0916 18.2039C28.84 18.2039 28.591 17.8727 28.2976 17.7076C28.0049 17.5433 27.9639 17.6254 27.9639 17.6254C27.9639 17.6254 28.2976 18.1209 28.2976 18.2446C28.2976 18.3682 28.6723 18.5749 29.0497 18.4919C29.0497 18.4919 29.2995 18.9468 29.4245 19.0704C29.5494 19.1941 29.3825 19.3186 29.1327 19.4838C28.882 19.6481 28.9239 19.6074 28.7973 19.7311C28.6723 19.8547 28.2556 20.0631 28.1299 20.1444C28.0049 20.2266 27.5044 20.4748 27.2545 20.2266C27.1322 20.1072 27.1698 19.8556 27.0877 19.6896C27.0038 19.5244 26.1276 18.2437 25.7101 17.6661C25.6373 17.5644 25.4594 17.251 25.3353 17.1706C25.2104 17.0867 25.6279 17.0867 25.6279 17.0867C25.6279 17.0867 25.6279 16.797 25.586 16.5912C25.5432 16.3846 25.6279 16.0957 25.6279 16.0957C25.6279 16.0957 25.2104 16.343 25.0837 16.4261C24.9597 16.5091 24.8339 16.2617 24.6679 16.0542C24.501 15.8484 24.3333 15.5994 24.2923 15.3927C24.2503 15.1869 24.501 15.1039 24.501 15.1039L24.8758 14.8981C24.8758 14.8981 25.3353 14.8159 25.6279 14.8565C25.9197 14.8981 26.3783 14.9396 26.3783 14.9396C26.3783 14.9396 26.5033 14.6499 26.3364 14.5262C26.1704 14.4026 25.7931 14.1959 25.6262 14.2374C25.4602 14.278 25.7092 14.0307 25.9171 13.8655L25.4551 13.7825C25.4551 13.7825 25.035 13.9892 24.9092 14.0307C24.7843 14.0714 24.5669 14.1544 24.3992 14.361C24.2332 14.5677 24.466 14.8565 24.2991 14.9396C24.1331 15.0226 24.0202 15.0632 23.8944 15.1039C23.7694 15.1454 23.3724 15.1039 23.3724 15.1039C22.9412 15.1039 23.2176 15.4935 23.3296 15.6316L22.9959 15.2284L22.7487 14.6507C22.7487 14.6507 22.3927 14.4034 22.2259 14.3212C22.059 14.2382 21.5448 13.9494 21.5448 13.9494L21.5807 14.3212L22.0641 14.8057L22.1069 14.8167L22.3585 15.1471L21.8032 15.1886V14.8616C21.2795 14.7363 21.4164 14.6075 21.3574 14.5677C21.2333 14.4856 20.9432 14.278 20.9432 14.278C20.9432 14.278 20.4521 14.361 20.3263 14.4026C20.2005 14.4441 20.1654 14.5677 19.9164 14.6499C19.6649 14.7329 19.5519 14.8565 19.4689 14.9802C19.3859 15.1039 19.1138 15.4757 18.9487 15.6409C18.781 15.8069 18.4713 15.7645 18.3463 15.7645C18.2205 15.7645 17.6182 15.5994 17.6182 15.5994V14.8989C17.6182 14.8989 17.6995 14.5059 17.6584 14.3822L18.0237 14.3212L18.6338 14.1967L18.8127 14.0722L19.0694 13.7419C19.0694 13.7419 18.781 13.5352 18.9889 13.2464C19.089 13.1075 19.4493 13.0812 19.6161 12.9576C19.7821 12.8339 20.0345 12.7509 20.0345 12.7509C20.0345 12.7509 20.3272 12.5036 20.6189 12.2139C20.6189 12.2139 20.8277 12.0894 21.0776 12.0064C21.0776 12.0064 21.7878 12.6264 21.9135 12.6264C22.0393 12.6264 22.4979 12.3375 22.4979 12.3375C22.4979 12.3375 22.6229 11.9666 22.5818 11.842C22.5399 11.7184 22.3311 11.305 22.3311 11.305C22.3311 11.305 22.2062 11.5117 22.0812 11.6769C21.9563 11.842 21.8725 12.0487 21.8725 12.0487C21.8725 12.0487 21.2881 12.0089 21.247 11.8852C21.2042 11.7607 21.1221 11.5566 21.0793 11.4338C21.0391 11.3093 20.7045 11.3135 20.4555 11.3965C20.2039 11.4795 20.4957 10.951 20.4957 10.951C20.4957 10.951 20.7473 10.6393 20.9133 10.6393C21.0793 10.6393 21.4566 10.4275 21.6218 10.3869C21.7895 10.3454 22.2917 10.1565 22.4988 10.1565C22.7076 10.1565 22.9583 10.2454 23.0841 10.2454C23.2099 10.2454 23.7096 10.2454 23.7096 10.2454L24.5849 10.176C24.5849 10.176 25.337 10.4513 25.0854 10.6173C25.0854 10.6173 25.3789 10.796 25.5039 10.9196C25.6211 11.0365 25.924 10.8121 26.0977 10.7164C29.22 12.656 31.3077 16.0873 31.3077 19.9996ZM11.3974 13.5352C11.3974 13.7004 11.1698 13.7402 11.3974 14.1552C11.6883 14.6922 11.4385 14.9404 11.4385 14.9404C11.4385 14.9404 10.7283 15.4359 10.6033 15.5189C10.4784 15.6019 10.1447 16.0559 10.3526 15.9314C10.5614 15.8077 10.8113 15.6841 10.6033 16.0144C10.3946 16.3456 10.0189 16.8817 9.93593 17.0893C9.85293 17.2968 9.43538 17.7914 9.43538 18.0396C9.43538 18.2878 9.26852 18.7841 9.31045 18.9908C9.33869 19.1348 9.24628 19.5591 9.17355 19.7336C9.23002 17.4111 10.0198 15.2707 11.3238 13.52C11.3666 13.5242 11.3974 13.5352 11.3974 13.5352ZM12.7374 11.9513C13.7581 11.0188 14.9544 10.2751 16.2738 9.77197C16.1437 9.93714 15.9863 10.1065 15.9863 10.1065C15.9863 10.1065 15.6945 10.1057 15.1512 10.685C14.6095 11.2636 14.7344 11.0984 14.6095 11.2627C14.4846 11.427 14.5257 11.4694 14.233 11.6769C13.9421 11.8827 13.8163 12.1309 13.8163 12.1309L13.3568 12.2961L12.9821 12.1309C12.9821 12.1309 12.6467 12.2554 12.6886 12.0894C12.7006 12.0453 12.7185 11.9996 12.7374 11.9513ZM17.7411 12.9152L17.5751 12.6679L17.7411 12.296L18.1432 12.4553V11.7175L18.5274 11.5117L18.8466 11.9657L19.3377 12.5036L19.0117 12.7509L18.1424 12.9161V12.4782L17.7411 12.9152ZM23.1678 16.7988C23.2653 16.7225 23.5845 16.9224 23.5845 16.9224C23.5845 16.9224 24.6275 17.1291 24.7944 17.2528C24.9621 17.3773 25.2539 17.4603 25.3377 17.5848C25.4216 17.7084 25.7125 18.0803 25.7536 18.2039C25.7964 18.3276 26.0051 18.7833 26.0471 18.9476C26.089 19.1128 26.2139 19.5261 26.3388 19.7328C26.4638 19.9403 27.174 20.8483 27.4238 21.2617L28.1768 21.138C28.1768 21.138 28.0921 21.509 28.0091 21.6335C27.9261 21.7572 27.6754 22.0875 27.5504 22.2527C27.4247 22.4178 27.2587 22.666 27.008 22.8718C26.7581 23.0776 26.7564 23.2843 26.6323 23.4503C26.5074 23.6155 26.3397 23.9873 26.3397 23.9873C26.3397 23.9873 26.4235 24.814 26.4646 24.9792C26.5057 25.1443 26.1728 25.5983 26.1728 25.5983L25.7964 25.971L25.2932 26.6308L25.3343 27.25C25.3343 27.25 24.9544 27.5405 24.7448 27.7048C24.5377 27.8692 24.5702 27.9937 24.4034 28.1597C24.2374 28.324 23.5845 28.6137 23.4176 28.6552C23.2508 28.6967 22.3301 28.8204 22.3301 28.8204V28.4494L22.3113 28.036C22.3113 28.036 22.1847 27.5405 22.0589 27.3754C21.9331 27.2102 21.9879 26.9612 21.7791 26.7554C21.5703 26.5487 21.4933 26.3844 21.4514 26.259C21.4094 26.1353 21.4967 25.7644 21.4967 25.7644C21.4967 25.7644 21.6653 25.3095 21.7483 25.1443C21.8321 24.9792 21.7491 24.7318 21.6653 24.5658C21.5814 24.3998 21.5412 23.9865 21.5412 23.8637C21.5412 23.74 21.2058 23.5325 21.0809 23.4088C20.9559 23.2852 20.9979 23.1191 20.9979 22.9557C20.9979 22.7888 20.8729 22.4178 20.914 22.1281C20.9559 21.8393 20.5392 22.0451 20.2885 22.1281C20.0378 22.2111 19.8718 22.0451 19.8718 21.797C19.8718 21.5488 19.4132 21.7563 19.1206 21.9206C18.8271 22.0858 18.4942 22.0858 18.1588 22.2103C17.826 22.334 17.66 22.0866 17.66 22.0866C17.66 22.0866 17.3665 21.8393 17.1594 21.7148C16.9498 21.5911 16.741 21.3438 16.5733 21.1371C16.4073 20.9296 15.9889 20.3096 15.9487 20.0631C15.9067 19.8141 15.9487 19.6481 15.9487 19.3593C15.9487 19.0704 15.9487 18.9053 15.9897 18.6986C16.0317 18.4919 16.1566 18.2438 16.2824 18.0371C16.4073 17.8304 16.8668 17.5831 16.9908 17.5001C17.1158 17.4179 17.4084 17.1706 17.4084 17.0046C17.4084 16.8394 17.5761 16.7573 17.6583 16.5912C17.743 16.4261 18.0347 16.0136 18.4104 16.1788C18.4104 16.1788 18.7432 16.1381 18.8681 16.0966C18.9931 16.0551 19.3268 15.9323 19.4919 15.8493C19.6588 15.7663 20.0746 15.7273 20.0746 15.7273C20.0746 15.7273 20.4032 15.8569 20.5281 15.8569C20.653 15.8569 21.0603 15.7849 21.0603 15.7849C21.0603 15.7849 21.2486 16.3837 21.2486 16.5082C21.2486 16.6327 21.3735 16.7556 21.5831 16.8386C21.7893 16.9224 22.7502 17.1299 23.1678 16.7988ZM27.9658 24.897C27.9658 25.0207 27.9239 25.3518 27.882 25.517C27.8384 25.6822 27.7562 25.9718 27.7151 26.1353C27.6732 26.3013 27.4644 26.6317 27.3404 26.7147C27.2154 26.7977 27.0058 27.0458 26.8817 27.0865C26.7568 27.128 26.6721 26.7968 26.714 26.6317C26.7568 26.4665 26.9647 26.0125 26.9647 26.0125C26.9647 26.0125 27.0067 25.7652 27.0477 25.5992C27.0905 25.4348 27.5911 25.2282 27.5911 25.2282L27.9256 24.6082C27.9239 24.6073 27.9658 24.7742 27.9658 24.897ZM9.44576 22.4355C9.49967 22.4491 9.57668 22.4881 9.68535 22.5838C9.84279 22.7193 9.93605 22.7887 10.1448 22.8726C10.3528 22.9565 10.4366 23.0784 10.6873 23.2029C10.938 23.3274 10.855 23.2453 11.1879 23.6163C11.5224 23.9873 11.4805 23.9873 11.5635 24.1948C11.6465 24.4023 11.7723 24.6073 11.8561 24.7326C11.94 24.8563 12.1898 24.9385 12.3148 25.0215C12.4397 25.1045 12.6485 25.1866 12.7734 25.1866C12.8992 25.1866 13.2748 25.5585 13.4836 25.5991C13.6924 25.6415 13.6924 26.0548 13.6924 26.0548L13.4836 26.6325L13.3159 27.2516L13.4836 27.7471C13.4836 27.7471 13.232 27.9547 13.0669 27.9547C12.9129 27.9547 12.8607 28.0512 12.6921 28.0055C11.1006 26.5342 9.94632 24.6098 9.44576 22.4355Z" fill="#228CC4"/>
</svg>
