<svg width="59" height="59" viewBox="0 0 59 59" fill="none" xmlns="http://www.w3.org/2000/svg">
<path fill-rule="evenodd" clip-rule="evenodd" d="M29.5002 0C13.2098 0 0 13.5417 0 30.2469C0 43.6107 8.45272 54.9485 20.1741 58.948C21.6484 59.228 22.1897 58.2919 22.1897 57.493C22.1897 56.7717 22.1623 54.389 22.1496 51.8616C13.9426 53.6913 12.2108 48.2929 12.2108 48.2929C10.8689 44.7968 8.93537 43.8672 8.93537 43.8672C6.25881 41.9899 9.13712 42.0284 9.13712 42.0284C12.0995 42.2418 13.6593 45.1454 13.6593 45.1454C16.2904 49.7695 20.5605 48.4326 22.2439 47.6598C22.5087 45.7049 23.2732 44.3705 24.1168 43.6152C17.5644 42.8504 10.6764 40.2569 10.6764 28.6671C10.6764 25.3648 11.8288 22.6666 13.7159 20.5484C13.4096 19.7866 12.3999 16.7102 14.0017 12.5439C14.0017 12.5439 16.479 11.731 22.1164 15.6443C24.4696 14.9742 26.9932 14.6381 29.5002 14.6266C32.0073 14.6381 34.5329 14.9742 36.8905 15.6443C42.521 11.731 44.9949 12.5439 44.9949 12.5439C46.6006 16.7102 45.5904 19.7866 45.2841 20.5484C47.1756 22.6666 48.3202 25.3648 48.3202 28.6671C48.3202 40.2844 41.419 42.8424 34.8499 43.5912C35.9081 44.5298 36.8509 46.3705 36.8509 49.1925C36.8509 53.2395 36.8167 56.4967 36.8167 57.493C36.8167 58.2979 37.3477 59.241 38.843 58.944C50.558 54.94 59 43.6062 59 30.2469C59 13.5417 45.7921 0 29.5002 0Z" fill="#161514"/>
<path fill-rule="evenodd" clip-rule="evenodd" d="M11.2593 43.2204C11.1944 43.3691 10.9643 43.4138 10.7546 43.3116C10.541 43.2139 10.4211 43.0111 10.4903 42.8618C10.5537 42.7085 10.7844 42.6659 10.9974 42.7686C11.2115 42.8663 11.3334 43.0711 11.2593 43.2204Z" fill="#161514"/>
<path fill-rule="evenodd" clip-rule="evenodd" d="M12.4538 44.5732C12.3134 44.7057 12.0389 44.6442 11.8526 44.4349C11.66 44.2261 11.6239 43.9469 11.7663 43.8125C11.9111 43.6801 12.1774 43.7421 12.3705 43.9508C12.5631 44.1621 12.6006 44.4393 12.4538 44.5732Z" fill="#161514"/>
<path fill-rule="evenodd" clip-rule="evenodd" d="M13.6149 46.2981C13.4345 46.4256 13.1395 46.306 12.9571 46.0397C12.7767 45.7734 12.7767 45.454 12.961 45.3261C13.1438 45.1981 13.4345 45.3132 13.6193 45.5775C13.7992 45.8483 13.7992 46.1677 13.6149 46.2981Z" fill="#161514"/>
<path fill-rule="evenodd" clip-rule="evenodd" d="M15.2056 47.9645C15.0442 48.1455 14.7004 48.0969 14.4488 47.8499C14.1914 47.6084 14.1197 47.2657 14.2816 47.0847C14.4449 46.9032 14.7906 46.9542 15.0442 47.1992C15.2997 47.4403 15.3777 47.7854 15.2056 47.9645Z" fill="#161514"/>
<path fill-rule="evenodd" clip-rule="evenodd" d="M17.3997 48.932C17.3285 49.1666 16.9974 49.2732 16.6639 49.1735C16.3308 49.0709 16.1129 48.7961 16.1802 48.5591C16.2494 48.323 16.582 48.2119 16.9179 48.3185C17.2505 48.4207 17.4689 48.6935 17.3997 48.932Z" fill="#161514"/>
<path fill-rule="evenodd" clip-rule="evenodd" d="M19.8083 49.1116C19.8166 49.3585 19.5338 49.5634 19.1837 49.5678C18.8316 49.5758 18.5469 49.3759 18.543 49.1329C18.543 48.8834 18.8194 48.6806 19.1715 48.6746C19.5216 48.6677 19.8083 48.8661 19.8083 49.1116Z" fill="#161514"/>
<path fill-rule="evenodd" clip-rule="evenodd" d="M22.0504 48.7232C22.0923 48.9643 21.849 49.2117 21.5013 49.2777C21.1595 49.3412 20.8431 49.1924 20.7997 48.9533C20.7572 48.7064 21.0049 48.4589 21.3463 48.3949C21.6944 48.3334 22.006 48.4782 22.0504 48.7232Z" fill="#161514"/>
</svg>
