<svg width="618" height="580" viewBox="0 0 618 580" fill="none" xmlns="http://www.w3.org/2000/svg">
<rect x="33" y="64" width="524" height="417" fill="#F7E018" fill-opacity="0.28"/>
<line x1="1.47815" y1="148.794" x2="133.045" y2="579.131" stroke="#252525" stroke-opacity="0.38"/>
<line x1="45.4681" y1="135.344" x2="177.992" y2="565.388" stroke="#252525" stroke-opacity="0.38"/>
<line x1="89.4593" y1="121.898" x2="219.114" y2="552.82" stroke="#252525" stroke-opacity="0.38"/>
<line x1="133.449" y1="108.446" x2="265.972" y2="538.49" stroke="#252525" stroke-opacity="0.38"/>
<line x1="177.439" y1="94.9975" x2="309.006" y2="525.335" stroke="#252525" stroke-opacity="0.38"/>
<line x1="221.428" y1="81.5505" x2="351.083" y2="512.472" stroke="#252525" stroke-opacity="0.38"/>
<line x1="265.418" y1="68.1014" x2="395.073" y2="499.023" stroke="#252525" stroke-opacity="0.38"/>
<line x1="309.408" y1="54.6513" x2="440.019" y2="485.281" stroke="#252525" stroke-opacity="0.38"/>
<line x1="353.399" y1="41.2032" x2="483.053" y2="472.125" stroke="#252525" stroke-opacity="0.38"/>
<line x1="397.388" y1="27.7509" x2="529.912" y2="457.796" stroke="#252525" stroke-opacity="0.38"/>
<line x1="441.378" y1="14.3008" x2="574.858" y2="444.053" stroke="#252525" stroke-opacity="0.38"/>
<line x1="485.369" y1="0.853814" x2="616.936" y2="431.191" stroke="#252525" stroke-opacity="0.38"/>
<line x1="0.853814" y1="148.462" x2="484.744" y2="0.521836" stroke="#252525" stroke-opacity="0.38"/>
<line x1="14.0101" y1="191.496" x2="497.9" y2="43.5555" stroke="#252525" stroke-opacity="0.38"/>
<line x1="27.1663" y1="234.529" x2="511.057" y2="86.5893" stroke="#252525" stroke-opacity="0.38"/>
<line x1="40.3245" y1="277.563" x2="524.215" y2="129.623" stroke="#252525" stroke-opacity="0.38"/>
<line x1="53.4808" y1="320.597" x2="537.371" y2="172.657" stroke="#252525" stroke-opacity="0.38"/>
<line x1="66.637" y1="363.63" x2="550.527" y2="215.69" stroke="#252525" stroke-opacity="0.38"/>
<line x1="79.7933" y1="406.664" x2="563.683" y2="258.724" stroke="#252525" stroke-opacity="0.38"/>
<line x1="92.9515" y1="449.698" x2="576.842" y2="301.758" stroke="#252525" stroke-opacity="0.38"/>
<line x1="106.108" y1="492.732" x2="589.998" y2="344.792" stroke="#252525" stroke-opacity="0.38"/>
<line x1="119.264" y1="535.765" x2="603.154" y2="387.825" stroke="#252525" stroke-opacity="0.38"/>
<line x1="132.42" y1="578.799" x2="616.31" y2="430.859" stroke="#252525" stroke-opacity="0.38"/>
</svg>
