<svg width="923" height="875" viewBox="0 0 923 875" fill="none" xmlns="http://www.w3.org/2000/svg">
<path opacity="0.5" d="M311 -146.306C193.828 -45.7834 175.671 144.298 96.3149 284.527C68.6904 333.322 32.9958 376.992 14.3725 431.123C-28.3834 555.026 30.461 695.572 109.222 793.981C146.779 840.927 190.647 883.936 243.723 903.723C284.539 918.94 328.304 919.574 371.267 919.971L1123.96 927.896C1208 928.768 1301.37 925.624 1361.79 859.208C1403.44 813.478 1420.35 746.692 1434.71 682.944C1452.35 604.613 1468.33 519.546 1440.89 444.94C1409.54 359.582 1330.26 311.21 1281.01 237.555C1201.09 118.223 1202.93 -62.2686 1101.14 -157.534C1053.63 -201.996 990.93 -219.432 929.836 -228.15C814.656 -244.609 705.555 -213.541 592.444 -217.873C495.758 -221.572 391.209 -215.126 311 -146.306Z" fill="#FEF6DD"/>
</svg>
